<svg id="Layer_1" data-name="Layer 1" xmlns="http://www.w3.org/2000/svg" xmlns:xlink="http://www.w3.org/1999/xlink" viewBox="0 0 957.52 1102.74"><defs><style>.cls-1,.cls-2,.cls-32{fill:none;}.cls-2{clip-rule:evenodd;}.cls-3{clip-path:url(#clip-path);}.cls-4{opacity:0.85;}.cls-5{clip-path:url(#clip-path-3);}.cls-6{opacity:0.2;}.cls-7{clip-path:url(#clip-path-4);}.cls-29,.cls-33,.cls-8{fill:#e8484a;}.cls-12,.cls-13,.cls-14,.cls-16,.cls-17,.cls-18,.cls-19,.cls-20,.cls-21,.cls-22,.cls-23,.cls-24,.cls-25,.cls-26,.cls-8{fill-rule:evenodd;}.cls-9{opacity:0.26;}.cls-10{clip-path:url(#clip-path-5);}.cls-11,.cls-12{fill:#ef7b7c;}.cls-13{fill:#e5e5e5;}.cls-14{fill:#8b8b8b;}.cls-15{clip-path:url(#clip-path-6);}.cls-16{fill:#555;}.cls-17{fill:#cfcfcf;}.cls-18{fill:#b9b9b9;}.cls-19{fill:#545454;}.cls-20{fill:#fff;}.cls-21{fill:#ff9c6d;}.cls-22{fill:#1d1d1d;}.cls-23{fill:#464646;}.cls-24,.cls-42{fill:#565656;}.cls-25{fill:#a31b1c;}.cls-26{fill:#df7746;}.cls-27{opacity:0.77;}.cls-28{clip-path:url(#clip-path-7);}.cls-30{opacity:0.34;}.cls-31{clip-path:url(#clip-path-8);}.cls-32{stroke:#ed1c24;stroke-miterlimit:10;stroke-width:4px;}.cls-33{font-size:52.1px;font-family:Quicksand-Bold, Quicksand;font-weight:700;}.cls-34{letter-spacing:-0.01em;}.cls-35{letter-spacing:0em;}.cls-36{letter-spacing:-0.02em;}.cls-37{letter-spacing:0em;}.cls-38{letter-spacing:-0.01em;}.cls-39{letter-spacing:0em;}.cls-40{opacity:0.58;}.cls-41{clip-path:url(#clip-path-10);}.cls-42{font-size:24.83px;font-family:Quicksand-Light, Quicksand;font-weight:300;}.cls-43{letter-spacing:-0.04em;}.cls-44{letter-spacing:-0.01em;}.cls-45{letter-spacing:0em;}.cls-46{letter-spacing:-0.02em;}</style><clipPath id="clip-path" transform="translate(-342.24 -282.13)"><rect class="cls-1" width="1642" height="1667"/></clipPath><clipPath id="clip-path-3" transform="translate(-342.24 -282.13)"><rect class="cls-1" x="342.24" y="282.13" width="957.52" height="583.39"/></clipPath><clipPath id="clip-path-4" transform="translate(-342.24 -282.13)"><rect class="cls-1" x="342.89" y="282.13" width="956.87" height="583.39"/></clipPath><clipPath id="clip-path-5" transform="translate(-342.24 -282.13)"><rect class="cls-1" x="536.94" y="406.43" width="89.9" height="458.72"/></clipPath><clipPath id="clip-path-6" transform="translate(-342.24 -282.13)"><path class="cls-2" d="M678.86,652.59H897.23V444.69H687.51a8.65,8.65,0,0,0-8.65,8.65Z"/></clipPath><clipPath id="clip-path-7" transform="translate(-342.24 -282.13)"><rect class="cls-1" x="432.16" y="934.52" width="759.65" height="314.7"/></clipPath><clipPath id="clip-path-8" transform="translate(-342.24 -282.13)"><rect class="cls-1" x="412.33" y="949.5" width="763.65" height="318.69"/></clipPath><clipPath id="clip-path-10" transform="translate(-342.24 -282.13)"><rect class="cls-1" x="485.53" y="1358.52" width="635.08" height="26.35"/></clipPath></defs><title>400</title><g class="cls-3"><g class="cls-3"><g class="cls-4"><g class="cls-5"><g class="cls-6"><g class="cls-7"><path class="cls-8" d="M416.63,865.52s-94.58-71.95-69.51-213.13S505.35,493.58,636.48,546.83s182-268.09,377-264.67S1452.81,677.37,1174,862.08Z" transform="translate(-342.24 -282.13)"/></g></g><g class="cls-9"><g class="cls-10"><rect class="cls-11" x="194.7" y="124.3" width="89.9" height="458.72"/></g></g><path class="cls-8" d="M594.94,355.1c3.64,1.37,3.11,11.75-1.18,23.16S583,397.83,579.4,396.46s-3.12-11.74,1.17-23.16,10.72-19.57,14.37-18.2" transform="translate(-342.24 -282.13)"/><path class="cls-12" d="M580,347.51c5.18,0,9.39,13.2,9.39,29.45S585.15,406.4,580,406.4s-9.4-13.19-9.4-29.44,4.21-29.45,9.4-29.45" transform="translate(-342.24 -282.13)"/><polygon class="cls-8" points="222.54 101.75 256.75 101.75 253.5 124.93 225.8 124.93 222.54 101.75"/><path class="cls-8" d="M1086.88,359.36c5.68,2.14,4.87,18.35-1.83,36.18s-16.75,30.57-22.44,28.43-4.87-18.34,1.83-36.17,16.75-30.57,22.44-28.44" transform="translate(-342.24 -282.13)"/><path class="cls-12" d="M1063.5,347.51c8.1,0,14.67,20.61,14.67,46s-6.57,46-14.67,46-14.67-20.61-14.67-46,6.57-46,14.67-46" transform="translate(-342.24 -282.13)"/><polygon class="cls-8" points="697.54 122.18 750.98 122.18 745.89 158.39 702.63 158.39 697.54 122.18"/><path class="cls-8" d="M681.61,863.62h439.44a8,8,0,0,0,8-8V447.48a8,8,0,0,0-8-8H681.61a8,8,0,0,0-8,8V855.67a8,8,0,0,0,8,8" transform="translate(-342.24 -282.13)"/><path class="cls-13" d="M911.71,652.59h203.63a7.38,7.38,0,0,0,7.37-7.38V452.06a7.37,7.37,0,0,0-7.37-7.37H911.71a7.37,7.37,0,0,0-7.37,7.37V645.21a7.38,7.38,0,0,0,7.37,7.38" transform="translate(-342.24 -282.13)"/><path class="cls-14" d="M685.44,652.59H890.65a6.58,6.58,0,0,0,6.58-6.58V451.27a6.58,6.58,0,0,0-6.58-6.58H685.44a6.59,6.59,0,0,0-6.58,6.58V646a6.59,6.59,0,0,0,6.58,6.58" transform="translate(-342.24 -282.13)"/><g class="cls-15"><polygon class="cls-16" points="569.67 344.43 567.18 392.17 303.06 403.43 359.98 342.05 383.21 342.18 569.67 344.43"/><polygon class="cls-17" points="393.89 162.56 393.89 342.3 336.62 370.45 326.07 151.85 393.89 162.56"/></g><path class="cls-13" d="M687,858H889.09a8.09,8.09,0,0,0,8.14-8V668.1a8.09,8.09,0,0,0-8.14-8H687a8.09,8.09,0,0,0-8.14,8V850a8.09,8.09,0,0,0,8.14,8" transform="translate(-342.24 -282.13)"/><path class="cls-13" d="M914.21,858h198.64a9.8,9.8,0,0,0,9.86-9.74V669.8a9.8,9.8,0,0,0-9.86-9.74H914.21a9.81,9.81,0,0,0-9.87,9.74V848.26a9.81,9.81,0,0,0,9.87,9.74" transform="translate(-342.24 -282.13)"/><path class="cls-8" d="M892.33,444.69h-2.77a4.77,4.77,0,0,0-2.78.89l-39.15,28.06a4.78,4.78,0,0,0-2,3.88V679.93a4.76,4.76,0,0,0,7.92,3.57l36.53-32.14a4.78,4.78,0,0,0,1.62-3.45l5.39-198.32a4.77,4.77,0,0,0-4.77-4.9" transform="translate(-342.24 -282.13)"/><path class="cls-18" d="M890,449.89,853.13,476.3a4.58,4.58,0,0,0-1.91,3.72V676.64a4.58,4.58,0,0,0,7.25,3.72L895.32,654a4.59,4.59,0,0,0,1.91-3.73V453.62a4.58,4.58,0,0,0-7.25-3.73" transform="translate(-342.24 -282.13)"/><path class="cls-19" d="M867.32,529.34c4.19.61,6.73,7.1,5.66,14.5s-5.36,12.9-9.55,12.29-6.74-7.11-5.66-14.5,5.35-12.9,9.55-12.29" transform="translate(-342.24 -282.13)"/><path class="cls-20" d="M872.62,530.44c4.19.61,6.73,7.11,5.66,14.5s-5.36,12.9-9.55,12.29-6.74-7.1-5.66-14.5,5.35-12.9,9.55-12.29" transform="translate(-342.24 -282.13)"/><path class="cls-21" d="M848.94,570.94l2.78-6.4s3.31-4.33-.77-14,7.24-8.34,12.61-3.73c0,0,6.55-11.19,15-12.72s18.13,4.68,15.67,20.17S871.78,589,871.78,589Z" transform="translate(-342.24 -282.13)"/><path class="cls-22" d="M419.12,810.12s-13.77,2.18-21.81-.86-20,.7-24.78,14.43S359.07,842,348.37,849.93s-9.68,20.23,21.76,11.52,41.65-11,53.48-12.6,17-19.27,17-19.27Z" transform="translate(-342.24 -282.13)"/><path class="cls-23" d="M629.64,738.22l-2,25.07h0l-2.63,33-2.59,32.56s-22,19.52-73.14,21-131.12.93-131.12.93a40.83,40.83,0,0,1-5.33-15.43,40.33,40.33,0,0,1,5.69-26.08s6.3-2.71,35.49-6.54,89.85-13.11,89.85-13.11,0-.22-.09-1c-.31-2.92-1.55-13.83-6.56-51-6.3-46.84,5.81-54.37,5.81-54.37s89.21.91,96.09,2.32-9.47,52.64-9.47,52.64" transform="translate(-342.24 -282.13)"/><path class="cls-24" d="M587.45,792c-4.08,13.45-49.83,16.83-86.06,26.49-28.2,7.51-71,14.25-88.56,16.86a40.33,40.33,0,0,1,5.69-26.08s6.3-2.71,35.49-6.54,89.85-13.11,89.85-13.11,0-.22-.09-1c6.47-.41,42.17-2.4,43.68,3.36" transform="translate(-342.24 -282.13)"/><path class="cls-22" d="M627.64,763.29h0l-2.63,33-2-.92S592.3,765.23,586.82,755s2-17.65,15.48-9.36a296.35,296.35,0,0,1,25.34,17.67" transform="translate(-342.24 -282.13)"/><path class="cls-22" d="M548.06,823.39a20.36,20.36,0,0,1-17.22-2.08c-8.75-5.45-21.67-4.39-28.07,8.78s-18.21,17-28.37,23.41-5.88,9.53,21,7.78,54.44.8,54.44.8Z" transform="translate(-342.24 -282.13)"/><path class="cls-21" d="M746.78,446.59s12.56-12,26.14-14.91,20.06,4.55,20.63,9.25-2.66,3.57-5.79,5.18-8.75,8.78-8.75,8.78-8.86,17-16.13,18.1-16.1-26.4-16.1-26.4" transform="translate(-342.24 -282.13)"/><path class="cls-23" d="M727.1,862.85c-39.89.55-170.62,2.27-178.31,1.23-4.85-.65-8-11-7.29-22.18.42-6.56,2.17-13.39,5.7-18.62,0,0,90.18-20.54,134.35-23.28l-.07,0c-2-1.3-47.13-31.39-69.69-48.09-23.06-17.07-27.41-55-27.41-55l80.76-3.14,15.15-.59s49.79,42.59,68.34,68.88a114.55,114.55,0,0,1,15.5,31.25c8.16,26.39,5,56.95-37,69.63" transform="translate(-342.24 -282.13)"/><path class="cls-24" d="M764.13,793.22c-13.87-4.32-31.19-22.38-63.41-55.39-20.45-21-30.57-35.16-35.58-44.15l15.15-.59s49.79,42.59,68.34,68.88a114.55,114.55,0,0,1,15.5,31.25" transform="translate(-342.24 -282.13)"/><path class="cls-24" d="M718.7,813.64c-13,10.14-75.43,13.94-110.93,20.59-24.26,4.54-51.48,6.74-66.27,7.67.42-6.56,2.17-13.39,5.7-18.62,0,0,90.18-20.54,134.35-23.28l-.07,0,.66,0c49.71-1.64,49.51,3.57,36.56,13.71" transform="translate(-342.24 -282.13)"/><path class="cls-8" d="M779.6,459.63s-50.42,88.68-92.2,143.45-78,7-78,7,58-75.43,92.56-115.44c3.29-3.8,6.36-7.28,9.15-10.35,32.12-35.35,35.71-37.74,35.71-37.74s20.35-1.14,29.82,8.77a16.54,16.54,0,0,1,3,4.28" transform="translate(-342.24 -282.13)"/><path class="cls-12" d="M776.6,455.35c-13.81,4.15-23.3,10-44.81,25.46-12.23,8.78-22.76,12.4-29.87,13.86,3.29-3.8,6.36-7.28,9.15-10.35,32.12-35.35,35.71-37.74,35.71-37.74s20.35-1.14,29.82,8.77" transform="translate(-342.24 -282.13)"/><path class="cls-25" d="M634.16,598.21s14.53-18.54,30.59-21.6,4.21,29.06-30.59,21.6" transform="translate(-342.24 -282.13)"/><path class="cls-21" d="M733.8,557.31c-1.38,4.48-4.75,6.43-8.74,8.18-4.5,2-9.27,3.58-12.66,6.5-3,2.54-4.88,6.11-4.58,11.79.64,12.15,1.51,12.43,1.51,12.43a55.4,55.4,0,0,1-9.55,2.88c-10.55,2.28-28.06,3.4-43.06-8.34,0,0,11-7.91,9.24-22.25a33.31,33.31,0,0,0-4.2-12.22c-.66-1.18-1.28-2.35-1.87-3.51-10.4-20.4-10.19-37,11.32-47.27,15.86-7.55,32.78-6.18,45,4.69A47.58,47.58,0,0,1,729,529.67c5.36,14.5,6.31,22.64,4.78,27.64" transform="translate(-342.24 -282.13)"/><path class="cls-26" d="M733.8,557.31c-1.38,4.48-4.75,6.43-8.74,8.18-4.5,2-9.27,3.58-12.66,6.5-9.68-1.56-17.58-.16-15.95,10.48a168.93,168.93,0,0,0,3.33,16.62c-10.55,2.28-28.06,3.4-43.06-8.34,0,0,11-7.91,9.24-22.25a33.31,33.31,0,0,0-4.2-12.22c-.66-1.18-1.28-2.35-1.87-3.51,1.14-2.5,1.87-4,1.87-4l33.43-13.12,3.41,4.21a9.09,9.09,0,0,0,.71,2.52v0a9.35,9.35,0,0,0,6.29,5.32c6.51,1.84,10.28,2.11,11.89,6.15s7.27,7.32,16.3,3.46" transform="translate(-342.24 -282.13)"/><path class="cls-22" d="M712.65,519.82c3.22,5.16-1.08,9-8.55,9.72s-7.66,3.87-5.5,10.3a24.75,24.75,0,0,1,.71,2.52v0c1.2,5.2.21,9.44-3.62,14.15C691.26,562,691.26,567,691.26,567c-10.2-4-19.28-1.46-25.3,1.54a33.31,33.31,0,0,0-4.2-12.22c-.66-1.18-1.28-2.35-1.87-3.51-10.4-20.4-10.19-37,11.32-47.27,15.86-7.55,32.78-6.18,45,4.69-1,2.63-6.48,5-3.58,9.63" transform="translate(-342.24 -282.13)"/><path class="cls-8" d="M872.39,588.83a130.32,130.32,0,0,1-18.07,17.26A154.12,154.12,0,0,1,799,634.81c-42.41,11.63-77.73,6.19-83.5,5.16h0l-.82-.15a247.42,247.42,0,0,0-22.43,41c-9.33,22.28-5.38,29-16.89,32.63-.67.21-1.43.41-2.28.61-13.85,3.23-51,4.6-73.08,1.44-23.46-3.35-61.38-23.11-61.38-23.11s-4.79-21.24,22-40.3,41.45-47,70.18-58.57c13.27-5.33,29.37-7.32,48.49-7.68,22.26-.42,48.62,1.38,79.41,2.71,57.22,2.49,83.45-16.68,93-24,0,0,19,.12,20.67,24.29" transform="translate(-342.24 -282.13)"/><path class="cls-12" d="M715.53,640l-.82-.15a247.42,247.42,0,0,0-22.43,41c-9.33,22.28-5.38,29-16.89,32.63-.67.21-1.43.41-2.28.61-3.34-5.54-5.84-14.73-2.6-29.36,6.52-29.42,20.16-47.14,20.16-47.14s13.23-.09,24.07,2.05a1.66,1.66,0,0,1,.79.37" transform="translate(-342.24 -282.13)"/><path class="cls-12" d="M872.39,588.83a130.32,130.32,0,0,1-18.07,17.26c-12.56-1.06-26.62-4.61-42.14-3.64-27.31,1.71-57.86-.8-100.8,2.57-30,2.35-33-11-32.11-19.19,22.26-.42,48.62,1.38,79.41,2.71,57.22,2.49,83.45-16.68,93-24,0,0,19,.12,20.67,24.29" transform="translate(-342.24 -282.13)"/><path class="cls-8" d="M619.93,526.5c2.83-.6,5.85,2.55,4.55,5.5-1,2.23-3.74,3.3-6.25,4.33a86,86,0,0,1-10.13,3.39,4.32,4.32,0,0,1-5.27-2.26,4.09,4.09,0,0,1,1.77-5,5.77,5.77,0,0,1,1.62-.56c3.92-1.11,8-2.12,11.45-4.19,1.3-.78.74-.87,2.26-1.25" transform="translate(-342.24 -282.13)"/><path class="cls-8" d="M624.91,496.6l.1.39s-.15-.54-.1-.39m5.43,7.39s-.17.31.11-.11l-.11.11m-.57,1.66s0,.32,0-.11a.36.36,0,0,0,0,.11m.06,1.32,0,.13s-.08-.43,0-.13m-9.68-13.14a4.12,4.12,0,0,1,4.5,2.11c1.88,2.17,5.05,3.36,8,4.52a19.18,19.18,0,0,1,3,2.15s2.5,1.84,2,4.41l-.29.83c-.74,1.54.18.58-1.44,1.67a5.37,5.37,0,0,1-3,.58,30.29,30.29,0,0,1-3.5-2.31,41,41,0,0,1-5.24-2.3,16.82,16.82,0,0,1-6.33-5.28c-.29-.45-.18.1-.59-1.16-.12-.37,0,.59-.19-.86,0,0,.2-3.54,2.91-4.33l.14,0" transform="translate(-342.24 -282.13)"/><path class="cls-8" d="M645.7,472.59a3.53,3.53,0,0,1,1.89,0l1.16.5a7.77,7.77,0,0,1,.79.66,8,8,0,0,1,.49.65c.49.84.24.21.46,1.07a7.24,7.24,0,0,1,.13,1.26,44.27,44.27,0,0,1,1.88,4.9c.69,2.31,1.23,4.64,1.88,7,0,0,.32,3-1.53,4.32a4.13,4.13,0,0,1-6.14-2.05c-1.06-3.36-1.52-6.95-3.12-10.27a8,8,0,0,1-1-3.5,5,5,0,0,1,1.24-3.53,2.8,2.8,0,0,1,.91-.64l.83-.33.14,0" transform="translate(-342.24 -282.13)"/><path class="cls-18" d="M934.48,533.9a10.69,10.69,0,1,1-10.68,10.68,10.68,10.68,0,0,1,10.68-10.68" transform="translate(-342.24 -282.13)"/><path class="cls-18" d="M934.48,745.7a10.69,10.69,0,1,1-10.68,10.68,10.68,10.68,0,0,1,10.68-10.68" transform="translate(-342.24 -282.13)"/></g></g><g class="cls-27"><g class="cls-28"><path id="_5" data-name="5" class="cls-29" d="M597.81,1244.85a24.57,24.57,0,0,1-18.36-7.65,26.17,26.17,0,0,1-7.43-19V1012.76l9.18,2.19-84.36,104.46-2.18-5.68H642.83a23.89,23.89,0,0,1,24.47,24.47,22.49,22.49,0,0,1-7,16.83,24.1,24.1,0,0,1-17.48,6.77H458.38q-9.18,0-17.7-7.43a23.39,23.39,0,0,1-8.52-18.35,26.68,26.68,0,0,1,6.55-17.49L576.83,949.38a24.85,24.85,0,0,1,9.18-7.64,27.83,27.83,0,0,1,12.67-2.85q11.37,0,18.58,7.65t7.21,19v252.63a26.14,26.14,0,0,1-26.66,26.66" transform="translate(-342.24 -282.13)"/><path class="cls-29" d="M806.75,1249.22q-37.61,0-63.6-19.89t-39.55-55.51q-13.56-35.61-13.55-82,0-46.75,13.55-82.17t39.55-55.29q26-19.87,63.6-19.89t63.59,19.89q26,19.89,39.55,55.29t13.55,82.17q0,46.34-13.55,82t-39.55,55.51q-26,19.89-63.59,19.89m0-52.45a46.73,46.73,0,0,0,31.68-11.58q13.34-11.58,20.76-35t7.43-58.35q0-35.4-7.43-58.57t-20.76-34.74a48.81,48.81,0,0,0-63.15,0q-13.56,11.58-21,34.74t-7.43,58.57q0,35,7.43,58.35t21,35a46.92,46.92,0,0,0,31.47,11.58" transform="translate(-342.24 -282.13)"/><path class="cls-29" d="M1075.11,1249.22q-37.59,0-63.6-19.89T972,1173.82q-13.56-35.61-13.55-82,0-46.75,13.55-82.17t39.55-55.29q26-19.87,63.6-19.89t63.59,19.89q26,19.89,39.56,55.29t13.55,82.17q0,46.34-13.55,82t-39.56,55.51q-26,19.89-63.59,19.89m0-52.45a46.76,46.76,0,0,0,31.69-11.58q13.32-11.58,20.76-35t7.43-58.35q0-35.4-7.43-58.57t-20.76-34.74a48.82,48.82,0,0,0-63.16,0q-13.56,11.58-21,34.74t-7.43,58.57q0,35,7.43,58.35t21,35a47,47,0,0,0,31.47,11.58" transform="translate(-342.24 -282.13)"/></g></g><g class="cls-30"><g class="cls-31"><path class="cls-32" d="M580,1261.82a24.57,24.57,0,0,1-18.36-7.65,26.16,26.16,0,0,1-7.43-19l.36-192.73-77.72,88.27H625a23.89,23.89,0,0,1,24.47,24.48,22.46,22.46,0,0,1-7,16.82,24.13,24.13,0,0,1-17.48,6.78H440.56q-9.18,0-17.7-7.43a23.4,23.4,0,0,1-8.52-18.36,26.63,26.63,0,0,1,6.55-17.48L559,966.36a25,25,0,0,1,9.18-7.65,28,28,0,0,1,12.67-2.84q11.35,0,18.58,7.65t7.21,19v252.63A26.14,26.14,0,0,1,580,1261.82Z" transform="translate(-342.24 -282.13)"/><path class="cls-32" d="M788.92,1266.19q-37.59,0-63.59-19.88t-39.56-55.51q-13.54-35.62-13.55-82,0-46.77,13.55-82.18t39.56-55.28q26-19.89,63.59-19.89t63.6,19.89q26,19.89,39.55,55.28t13.55,82.18q0,46.32-13.55,82t-39.55,55.51Q826.51,1266.2,788.92,1266.19Zm0-52.45q18.36,0,31.69-11.58t20.76-35q7.43-23.37,7.43-58.34,0-35.41-7.43-58.57t-20.76-34.75Q807.28,1004,788.92,1004a47,47,0,0,0-31.47,11.58q-13.55,11.58-21,34.75T729,1108.85q0,35,7.43,58.34t21,35A46.91,46.91,0,0,0,788.92,1213.74Z" transform="translate(-342.24 -282.13)"/><path class="cls-32" d="M1057.29,1266.19q-37.6,0-63.6-19.88t-39.55-55.51q-13.56-35.62-13.55-82,0-46.77,13.55-82.18t39.55-55.28q26-19.89,63.6-19.89t63.59,19.89q26,19.89,39.56,55.28t13.55,82.18q0,46.32-13.55,82t-39.56,55.51Q1094.87,1266.2,1057.29,1266.19Zm0-52.45q18.35,0,31.68-11.58t20.77-35q7.42-23.37,7.43-58.34,0-35.41-7.43-58.57T1089,1015.53a48.84,48.84,0,0,0-63.15,0q-13.56,11.58-21,34.75t-7.43,58.57q0,35,7.43,58.34t21,35A46.89,46.89,0,0,0,1057.29,1213.74Z" transform="translate(-342.24 -282.13)"/></g></g></g><text class="cls-33" transform="translate(74.33 1055.09)">A Bad <tspan class="cls-34" x="161.51" y="0">R</tspan><tspan class="cls-35" x="197.04" y="0">equest Er</tspan><tspan class="cls-36" x="433.94" y="0">r</tspan><tspan class="cls-37" x="455.45" y="0">or! </tspan><tspan class="cls-38" x="538.55" y="0">W</tspan><tspan class="cls-39" x="587.21" y="0">as Sent</tspan></text><g class="cls-3"><g class="cls-40"><g class="cls-41"><text class="cls-42" transform="translate(143.29 1097.5)"><tspan class="cls-43">Y</tspan><tspan x="12.59" y="0">our client has issued a malformed or il</tspan><tspan class="cls-44" x="441.65" y="0">l</tspan><tspan class="cls-45" x="446.76" y="0">eg</tspan><tspan x="475.44" y="0">al </tspan><tspan class="cls-46" x="502.28" y="0">r</tspan><tspan x="510.9" y="0">equest.</tspan></text></g></g></g></g></svg>