<svg height="512pt" viewBox="0 0 512 512" width="512pt" xmlns="http://www.w3.org/2000/svg"><path d="m424 8c17.671875 0 32 14.328125 32 32v64h-64v-96zm0 0" fill="#ffe082"/><path d="m56 200c-8.835938 0-16 7.164062-16 16v272h432v-272c0-8.835938-7.164062-16-16-16zm0 0" fill="#e0e0e0"/><path d="m296 456c0 8.835938-7.164062 16-16 16h-48c-8.835938 0-16-7.164062-16-16h-208v16c0 17.671875 14.328125 32 32 32h432c17.671875 0 32-14.328125 32-32v-16zm0 0" fill="#eee"/><path d="m72 232h368v192h-368zm0 0" fill="#a6e7ff"/><path d="m424 8h-272c-17.671875 0-32 14.328125-32 32v288h272v-288c0-17.671875 14.328125-32 32-32zm0 0" fill="#eee"/><path d="m152 56h208v32h-208zm0 0" fill="#ffe082"/><path d="m152 152h208v48h-208zm0 0" fill="#ffe082"/><path d="m152 200h208v96h-208zm0 0" fill="#ffd54f"/><path d="m312 400h-16v-16h16zm-32 0h-16v-16h16zm-32 0h-16v-16h16zm-32 0h-16v-16h16zm0 0" fill="#fff"/><path d="m416 368h-16v-16h16zm-32 0h-136v-16h136zm-152 0h-136v-16h136zm0 0" fill="#fff"/><path d="m480 448v-232c0-13.253906-10.746094-24-24-24h-56v-80h64v-72c-.027344-22.082031-17.917969-39.9726562-40-40h-272c-22.082031.0273438-39.972656 17.917969-40 40v152h-56c-13.253906 0-24 10.746094-24 24v232h-32v24c.0273438 22.082031 17.917969 39.972656 40 40h432c22.082031-.027344 39.972656-17.917969 40-40v-24zm-80-408c0-13.253906 10.746094-24 24-24s24 10.746094 24 24v56h-48zm-272 0c0-13.253906 10.746094-24 24-24h240.207031c-5.292969 6.882812-8.175781 15.316406-8.207031 24v280h-256zm288 296v-16h-16v-80h32v176h-352v-176h32v80h-16v16zm-368-120c0-4.417969 3.582031-8 8-8h56v16h-48v208h384v-208h-48v-16h56c4.417969 0 8 3.582031 8 8v232h-176v8c0 4.417969-3.582031 8-8 8h-48c-4.417969 0-8-3.582031-8-8v-8h-176zm448 256c0 13.253906-10.746094 24-24 24h-432c-13.253906 0-24-10.746094-24-24v-8h193.367188c3.402343 9.582031 12.464843 15.988281 22.632812 16h48c10.167969-.011719 19.230469-6.417969 22.632812-16h193.367188zm0 0"/><path d="m144 96h224v-48h-224zm16-32h192v16h-192zm0 0"/><path d="m144 304h224v-160h-224zm128-144h80v32h-80zm0 48h80v80h-80zm-56-48h40v32h-40zm0 48h40v80h-40zm-56-48h40v32h-40zm0 48h40v80h-40zm0 0"/><path d="m144 112h112v16h-112zm0 0"/><path d="m0 0h16v96h-16zm0 0"/><path d="m32 0h16v64h-16zm0 0"/><path d="m64 0h16v32h-16zm0 0"/></svg>