<svg height="512" viewBox="0 0 64 64" width="512" xmlns="http://www.w3.org/2000/svg" xmlns:xlink="http://www.w3.org/1999/xlink"><linearGradient id="linear-gradient" gradientUnits="userSpaceOnUse" x1="2.5" x2="57.594" y1="55.5" y2=".405"><stop offset="0" stop-color="#003f8a"/><stop offset=".518" stop-color="#00d7df"/><stop offset="1" stop-color="#006df0"/></linearGradient><linearGradient id="linear-gradient-2" x1="-5.5" x2="49.594" xlink:href="#linear-gradient" y1="47.5" y2="-7.594"/><linearGradient id="linear-gradient-3" x1="-2" x2="53.094" xlink:href="#linear-gradient" y1="51" y2="-4.094"/><linearGradient id="linear-gradient-4" x1="0" x2="55.094" xlink:href="#linear-gradient" y1="53" y2="-2.094"/><linearGradient id="linear-gradient-5" x1="-1" x2="54.094" xlink:href="#linear-gradient" y1="52" y2="-3.094"/><linearGradient id="linear-gradient-6" x1="6.25" x2="61.344" xlink:href="#linear-gradient" y1="59.25" y2="4.156"/><linearGradient id="linear-gradient-7" x1="3.5" x2="58.594" xlink:href="#linear-gradient" y1="56.5" y2="1.406"/><linearGradient id="linear-gradient-8" x1="5.25" x2="60.344" xlink:href="#linear-gradient" y1="58.25" y2="3.156"/><linearGradient id="linear-gradient-9" x1="5.75" x2="60.844" xlink:href="#linear-gradient" y1="58.75" y2="3.656"/><path d="m53 1h-42a1 1 0 0 0 -1 1v60a1 1 0 0 0 1 1h30a1 1 0 0 0 .707-.293l12-12a1 1 0 0 0 .293-.707v-48a1 1 0 0 0 -1-1zm-41 2h40v46h-11a1 1 0 0 0 -1 1v11h-28zm38.586 48-8.586 8.586v-8.586z" fill="url(#linear-gradient)"/><path d="m15 14h34a1 1 0 0 0 1-1v-6a1 1 0 0 0 -1-1h-34a1 1 0 0 0 -1 1v6a1 1 0 0 0 1 1zm1-6h32v4h-32z" fill="url(#linear-gradient-2)"/><path d="m15 18h34a1 1 0 0 0 0-2h-34a1 1 0 0 0 0 2z" fill="url(#linear-gradient-3)"/><path d="m15 22h34a1 1 0 0 0 0-2h-34a1 1 0 0 0 0 2z" fill="url(#linear-gradient-4)"/><path d="m37 24h-22a1 1 0 0 0 0 2h22a1 1 0 0 0 0-2z" fill="url(#linear-gradient-5)"/><path d="m40 26h1a1 1 0 0 0 0-2h-1a1 1 0 0 0 0 2z" fill="url(#linear-gradient-6)"/><path d="m33 32h-18a1 1 0 0 0 -1 1v6a1 1 0 0 0 1 1h18a1 1 0 0 0 1-1v-6a1 1 0 0 0 -1-1zm-1 6h-16v-4h16z" fill="url(#linear-gradient-7)"/><path d="m26 42h-11a1 1 0 0 0 0 2h11a1 1 0 0 0 0-2z" fill="url(#linear-gradient-8)"/><path d="m20 46h-5a1 1 0 0 0 0 2h5a1 1 0 0 0 0-2z" fill="url(#linear-gradient-9)"/></svg>