<svg height="511pt" viewBox="-57 1 511 511.99999" width="511pt" xmlns="http://www.w3.org/2000/svg"><path d="m172.660156 52.5h30c8.28125 0 15-6.714844 15-15 0-16.570312-13.433594-30-30-30-16.570312 0-30 13.429688-30 30 0 8.285156 6.714844 15 15 15zm0 0" fill="#85453d"/><path d="m187.660156 52.5v46.355469h34.695313v-30c-8.25-9.980469-20.726563-16.355469-34.695313-16.355469zm0 0" fill="#60312c"/><path d="m152.964844 98.855469v-30c8.25-9.980469 20.722656-16.355469 34.695312-16.355469 6.089844 0 11.320313 10.878906 13.667969 26.5-.128906-.0625 0 19.855469 0 19.855469zm0 0" fill="#85453d"/><path d="m222.355469 68.855469c-1.070313 4.550781-4.226563 8.535156-8.867188 10.464843-4.640625 1.917969-9.679687 1.328126-13.648437-1.128906l-12.179688 64.308594c24.847656 0 45-20.152344 45-45 0-10.878906-3.875-20.855469-10.304687-28.644531zm0 0" fill="#ffb4a9"/><path d="m201.328125 79c-.507813-.242188-1.007813-.511719-1.488281-.808594-2.71875 3.789063-7.160156 6.257813-12.179688 6.257813-4.082031 0-7.769531-1.628907-10.480468-4.28125-.621094-.609375-1.191407-1.269531-1.699219-1.976563-3.972657 2.457032-9.011719 3.046875-13.652344 1.128906-2.027344-.839843-3.769531-2.082031-5.1875-3.589843-1.8125-1.929688-3.078125-4.316407-3.675781-6.875-6.429688 7.789062-10.304688 17.765625-10.304688 28.644531 0 24.847656 20.148438 45 45 45 8.277344 0 15-20.152344 15-45 0-6.601562-.480468-12.859375-1.332031-18.5zm0 0" fill="#ffd9d4"/><path d="m374.660156 322.964844h-30v75l45-30v-30c0-8.25-6.75-15-15-15zm0 0" fill="#4f4f4f"/><path d="m359.660156 337.964844v60l-82-30v-30c0-8.25 6.75-15 15-15h52c8.25 0 15 6.75 15 15zm0 0" fill="#696969"/><path d="m359.660156 367.964844-15 121.5h30c8.25 0 15-6.75 15-15v-106.5zm0 0" fill="#ff1b7c"/><path d="m359.660156 367.964844v106.5c0 8.25-6.75 15-15 15h-52c-8.25 0-15-6.75-15-15v-106.5zm0 0" fill="#ff4996"/><path d="m217.660156 307.5v-75l-75 30c-9.328125 10.574219-15 24.453125-15 39.664062v155.335938h45v-150zm0 0" fill="#b9d171"/><path d="m232.660156 262.5-30-30v225h45v-155.335938c0-15.210937-5.671875-29.089843-15-39.664062zm0 0" fill="#9db55f"/><path d="m202.660156 262.5h30v-30l-60-30zm0 0" fill="#ff4996"/><path d="m172.660156 262.5h30v-30l-45-30zm0 0" fill="#ebebeb"/><path d="m172.660156 262.5h-30v-30l30-30zm0 0" fill="#ff6b8a"/><path d="m212.660156 172.5h-30l20 60h30v-40c0-11.046875-8.953125-20-20-20zm0 0" fill="#ff4128"/><path d="m182.660156 172.5h-20c-11.046875 0-20 8.953125-20 20v40h60v-40c0-11.046875-8.953125-20-20-20zm0 0" fill="#ff6337"/><path d="m68 432.5h30v-105h-30l-30 52.5zm0 0" fill="#353535"/><path d="m8 327.5h60v105h-60zm0 0" fill="#4f4f4f"/><path d="m135.160156 97.5c0 28.949219 23.550782 52.5 52.5 52.5 28.945313 0 52.5-23.550781 52.5-52.5 0-17.855469-8.96875-33.648438-22.628906-43.136719 4.671875-4.125 7.628906-10.15625 7.628906-16.863281 0-20.679688-16.824218-37.5-37.5-37.5-20.679687 0-37.5 16.820312-37.5 37.5 0 6.707031 2.953125 12.738281 7.625 16.863281-13.660156 9.488281-22.625 25.28125-22.625 43.136719zm52.5 37.5c-20.679687 0-37.5-16.824219-37.5-37.5 0-5.238281 1.082032-10.222656 3.027344-14.753906 1.722656 1.4375 3.660156 2.625 5.773438 3.503906 4.71875 1.953125 9.925781 2.207031 14.746093.835938 3.933594 3.109374 8.84375 4.863281 13.953125 4.863281 5.105469 0 10.019532-1.753907 13.949219-4.863281 4.820313 1.367187 10.035156 1.113281 14.761719-.84375 2.105468-.875 4.042968-2.0625 5.757812-3.496094 1.949219 4.53125 3.03125 9.515625 3.03125 14.753906 0 20.675781-16.824218 37.5-37.5 37.5zm-25.796875-64.675781c6.726563-6.390625 15.808594-10.324219 25.796875-10.324219 9.988282 0 19.070313 3.933594 25.796875 10.324219-.753906.890625-1.71875 1.597656-2.835937 2.066406-2.25.929687-4.738282.71875-6.832032-.578125-3.355468-2.074219-7.742187-1.199219-10.042968 2.003906-1.429688 1.992188-3.648438 3.132813-6.085938 3.132813-2.441406 0-4.660156-1.140625-6.085937-3.132813-2.300781-3.203125-6.6875-4.082031-10.042969-2.003906-2.09375 1.296875-4.585938 1.507812-6.820312.582031-1.128907-.46875-2.09375-1.179687-2.847657-2.070312zm10.796875-25.324219c-4.136718 0-7.5-3.363281-7.5-7.5 0-12.40625 10.09375-22.5 22.5-22.5s22.5 10.09375 22.5 22.5c0 4.136719-3.363281 7.5-7.5 7.5zm0 0"/><path d="m382.160156 316.753906v-68.789062c0-4.140625-3.359375-7.5-7.5-7.5h-82c-4.144531 0-7.5 3.359375-7.5 7.5v68.789062c-8.730468 3.097656-15 11.433594-15 21.210938v136.5c0 9.777344 6.269532 18.113281 15 21.210937v8.789063c0 4.140625 3.355469 7.5 7.5 7.5 4.140625 0 7.5-3.359375 7.5-7.5v-7.5h67v7.5c0 4.140625 3.355469 7.5 7.5 7.5 4.140625 0 7.5-3.359375 7.5-7.5v-8.789063c8.726563-3.097656 15-11.433593 15-21.210937v-136.5c0-9.777344-6.273437-18.113282-15-21.210938zm-15-61.289062v60h-67v-60zm-74.5 75h82c4.132813 0 7.5 3.363281 7.5 7.5v22.5h-97v-22.5c0-4.132813 3.363282-7.5 7.5-7.5zm82 151.5h-82c-4.136718 0-7.5-3.363282-7.5-7.5v-99h97v99c0 4.136718-3.367187 7.5-7.5 7.5zm0 0"/><path d="m250.03125 497.382812-24.871094-8.289062v-24.09375h22.5c4.140625 0 7.5-3.359375 7.5-7.5v-155.335938c0-15.472656-5.308594-30.417968-15-42.40625v-60.042968c50.269532-3.84375 90-45.976563 90-97.214844 0-4.140625-3.359375-7.5-7.5-7.5-4.144531 0-7.5 3.359375-7.5 7.5 0 43.34375-33.605468 78.960938-76.125 82.230469-3.363281-11.390625-13.910156-19.730469-26.375-19.730469h-50c-12.644531 0-23.316406 8.582031-26.515625 20.222656-48.578125 3.222656-87.539062 42.179688-90.761719 90.761719-12.863281 3.378906-22.382812 15.105469-22.382812 29.015625v15h-15c-4.144531 0-7.5 3.359375-7.5 7.5v105c0 4.140625 3.355469 7.5 7.5 7.5h90c4.144531 0 7.5-3.359375 7.5-7.5v-105c0-4.140625-3.355469-7.5-7.5-7.5h-15v-15c0-13.972656-9.601562-25.742188-22.554688-29.0625 3.164063-39.953125 34.890626-71.972656 74.714844-75.582031v59.402343c-9.695312 11.988282-15 26.933594-15 42.40625v155.335938c0 4.140625 3.355469 7.5 7.5 7.5h22.5v24.09375l-24.871094 8.289062c-3.929687 1.308594-6.054687 5.558594-4.746093 9.488282 1.050781 3.140625 3.976562 5.128906 7.117187 5.128906.785156 0 1.585938-.125 2.371094-.386719l30-10c3.0625-1.019531 5.128906-3.886719 5.128906-7.113281v-29.5h7.5c4.140625 0 7.5-3.359375 7.5-7.5v-142.5h15v142.5c0 4.140625 3.355469 7.5 7.5 7.5h7.5v29.5c0 3.226562 2.0625 6.09375 5.128906 7.113281l29.996094 10c.789063.261719 1.589844.386719 2.375.386719 3.140625 0 6.066406-1.988281 7.113282-5.128906 1.3125-3.929688-.8125-8.179688-4.742188-9.488282zm-159.53125-72.382812h-75v-90h75zm-22.5-120v15h-30v-15c0-8.273438 6.730469-15 15-15s15 6.726562 15 15zm142.160156-50v-15h15v15zm-30 0v-15h15v15zm-30 0v-15h15v15zm12.5-75h50c6.890625 0 12.5 5.605469 12.5 12.5v32.5h-75v-32.5c0-6.894531 5.605469-12.5 12.5-12.5zm55 127.5c0-4.144531-3.359375-7.5-7.5-7.5h-45c-4.144531 0-7.5 3.355469-7.5 7.5 0 4.140625 3.355469 7.5 7.5 7.5v135h-30v-147.835938c0-11.6875 3.90625-22.980468 11.039063-32.164062h82.921875c7.132812 9.183594 11.039062 20.476562 11.039062 32.164062v147.835938h-30v-135c4.140625 0 7.5-3.359375 7.5-7.5zm0 0"/></svg>