<svg id="Layer_1" data-name="Layer 1" xmlns="http://www.w3.org/2000/svg" viewBox="0 0 50 35"><defs><style>.cls-1{fill:#fbbd9e;}.cls-2{fill:#bda02f;}.cls-3{fill:#312a3d;}.cls-4{fill:#d4af3d;}.cls-5{fill:#151029;}.cls-6{fill:#f79b81;}.cls-7{fill:#f99e21;}.cls-8{fill:#1d1a29;}.cls-9{fill:#1f130f;}.cls-10{fill:#552c1a;}.cls-11{fill:#8c482b;}.cls-12{fill:#f7fcfd;}.cls-13{fill:#88a1d3;}.cls-14{fill:#6b85bd;}.cls-15{fill:#c1ddf4;}.cls-16{fill:#e5edf8;}.cls-17{fill:#fff;}.cls-18{fill:#f0eef7;}.cls-19{fill:#f99e42;}.cls-20{fill:#3d364c;}.cls-21{fill:#fcb558;}.cls-22{fill:#ffcd4e;}.cls-23{fill:#89889b;}.cls-24{fill:#79798a;}.cls-25{fill:#4f4f5f;}.cls-26{fill:#5d5d6f;}.cls-27{fill:#ffdfac;}.cls-28{fill:#ef3960;}.cls-29{fill:#ededee;}</style></defs><path class="cls-1" d="M123.1,110.62s1.4-.94,1.61-1.84a1.1,1.1,0,0,0-.41-1.26s-1.47,2-2,2.82C121.63,111.39,123.1,110.62,123.1,110.62Z" transform="translate(-78.33 -89.92)"/><path class="cls-2" d="M125.05,106.61c1,.85-.72,3.19-.72,3.19l-1.22-.69S124.07,105.78,125.05,106.61Z" transform="translate(-78.33 -89.92)"/><polygon class="cls-3" points="49.47 25.63 45.03 22.22 45.12 21.52 49.34 21.18 49.47 25.63"/><path class="cls-4" d="M124,107.23c.29-1,1.66-1,2.78-.86a1.34,1.34,0,0,1,1.33,1.41,15.22,15.22,0,0,1-.48,4.27s-1.29.78-4.15-.18A17.33,17.33,0,0,1,124,107.23Z" transform="translate(-78.33 -89.92)"/><path class="cls-5" d="M127.77,112.23s-2.73.57-4.43-.31l.11-.47a8,8,0,0,0,4.28.24Z" transform="translate(-78.33 -89.92)"/><polygon class="cls-3" points="48.08 21.83 47.83 21.83 47.78 22.62 48.18 22.62 48.08 21.83"/><polygon class="cls-3" points="46.38 21.74 46.21 21.68 45.91 22.4 46.27 22.52 46.38 21.74"/><path class="cls-1" d="M126.63,105.05s-1.15.27-1.09.37,0,.31-.05.51a1.14,1.14,0,0,1-.31.66c-.12.15.1.34.29.38.85.17,1.38-.17,1.2-.47A1.7,1.7,0,0,1,126.63,105.05Z" transform="translate(-78.33 -89.92)"/><path class="cls-6" d="M125.49,105.93c0-.2.12-.41.05-.51s1.18-.39,1.18-.39a1.08,1.08,0,0,0-.22.52,2.24,2.24,0,0,1-1.15.8A1.08,1.08,0,0,0,125.49,105.93Z" transform="translate(-78.33 -89.92)"/><path class="cls-1" d="M125.47,103.6a2,2,0,0,0-.36,2.27c.26.34,1.21,0,1.65-.75a1.67,1.67,0,0,0,0-1.23A.89.89,0,0,0,125.47,103.6Z" transform="translate(-78.33 -89.92)"/><path class="cls-3" d="M125,104.62c0,.07.1-.78.54-.84.18,0,.14.18.35.2s.72-.38.51.78c0,0,0,.12.06.17s-.06.2-.06.27.19-.14.19-.07-.17.38,0,.42.15-.09.19-.13a2.08,2.08,0,0,0,.4-.32,1.18,1.18,0,0,0,.23-.55,1.22,1.22,0,0,0,0-.6.74.74,0,0,0-.42-.41,2.07,2.07,0,0,1-.33-.1c-.09,0-.19-.06-.28-.11s-.1-.08-.15-.15a.53.53,0,0,0-.44-.23.45.45,0,0,0-.39.3c0,.1-.05.22-.13.26l-.1,0a.15.15,0,0,0-.06.09.86.86,0,0,0,0,.55.78.78,0,0,1,0,.22A1.49,1.49,0,0,0,125,104.62Z" transform="translate(-78.33 -89.92)"/><path class="cls-1" d="M126.24,105.05s.33-.32.51-.23-.07.63-.45.55S126.14,105.13,126.24,105.05Z" transform="translate(-78.33 -89.92)"/><path class="cls-7" d="M123.49,123.49s-.17.22-.37.51-.35.6-.07.74.63-.2.74-.41.23-.18.38-.31.07-.64.07-.64Z" transform="translate(-78.33 -89.92)"/><path class="cls-3" d="M126.07,113.87c-.41.56-1.77,9.64-1.77,9.64-.41.37-1,0-1,0a82.86,82.86,0,0,1,.11-11.5s3.1,2.42,2.69,1.86Z" transform="translate(-78.33 -89.92)"/><path class="cls-8" d="M124.12,112.14a50.34,50.34,0,0,0-.59,11.5c0,.09.13.09.12,0a50.68,50.68,0,0,1,.59-11.47c0-.08-.11-.12-.12,0Z" transform="translate(-78.33 -89.92)"/><path class="cls-8" d="M123.77,112.16c0,.37,0,1.43-.5,1.43a.07.07,0,0,0,0,.13c.6,0,.63-1.1.63-1.56a.07.07,0,1,0-.13,0Z" transform="translate(-78.33 -89.92)"/><path class="cls-7" d="M127.58,123.64s.17.22.37.51.35.6.07.74-.62-.2-.73-.41-.23-.18-.39-.32-.07-.63-.07-.63Z" transform="translate(-78.33 -89.92)"/><path class="cls-3" d="M125,114c.41.56,1.77,9.64,1.77,9.64.41.37,1,0,1,0a86.76,86.76,0,0,0,0-11.43S124.6,114.58,125,114Z" transform="translate(-78.33 -89.92)"/><path class="cls-8" d="M126.84,112.32a50.68,50.68,0,0,1,.58,11.47c0,.09.12.09.13,0a50.91,50.91,0,0,0-.59-11.5c0-.09-.13-.05-.12,0Z" transform="translate(-78.33 -89.92)"/><path class="cls-8" d="M127.18,112.3c0,.47,0,1.57.63,1.57a.07.07,0,0,0,0-.13c-.5,0-.51-1.06-.5-1.44a.07.07,0,0,0-.13,0Z" transform="translate(-78.33 -89.92)"/><path class="cls-9" d="M125.9,104.9h-.06c-.06,0-.08,0-.1-.09s0,0,0,0a.14.14,0,0,0,.22.1s0-.06,0,0Z" transform="translate(-78.33 -89.92)"/><path class="cls-9" d="M125.37,104.7l-.05,0c-.06,0-.09,0-.11-.06a0,0,0,1,0,0,0c0,.07.07.12.14.11a.24.24,0,0,0,.11-.06s0-.06,0,0Z" transform="translate(-78.33 -89.92)"/><path class="cls-10" d="M125.28,104.42a.15.15,0,0,1,.18.11s.06,0,.05,0a.21.21,0,0,0-.24-.15,0,0,0,0,0,0,.07Z" transform="translate(-78.33 -89.92)"/><path class="cls-10" d="M125.76,104.64a.14.14,0,0,1,.2.06,0,0,0,0,0,.05,0,.2.2,0,0,0-.27-.08s0,.08,0,.06Z" transform="translate(-78.33 -89.92)"/><path class="cls-11" d="M125.56,104.65a.36.36,0,0,1,0,.18c0,.09-.13.11-.18.18s0,.15.08.2,0,0,0,0c-.23-.1.06-.2.11-.31a.37.37,0,0,0,0-.21s0,0,0,0Z" transform="translate(-78.33 -89.92)"/><path class="cls-12" d="M125.65,105.34s0,.23-.18.21-.18-.23-.18-.23Z" transform="translate(-78.33 -89.92)"/><ellipse class="cls-6" cx="47.54" cy="15.35" rx="0.12" ry="0.13"/><ellipse class="cls-6" cx="46.75" cy="15.08" rx="0.12" ry="0.13"/><polygon class="cls-13" points="45.76 18.92 43.38 18.92 44.87 21.43 47.11 21.43 45.76 18.92"/><path class="cls-1" d="M127.64,111.08a4.89,4.89,0,0,0,.48-2.5,1,1,0,0,0-1-.83,7.66,7.66,0,0,1-.35,3C126.32,111.64,127.64,111.08,127.64,111.08Z" transform="translate(-78.33 -89.92)"/><path class="cls-2" d="M127.36,106.54c1.27.16.93,3.13.93,3.13l-1.37.11S126.12,106.39,127.36,106.54Z" transform="translate(-78.33 -89.92)"/><path class="cls-1" d="M127.38,111.26a9.87,9.87,0,0,1-2.48,0l.31-.47,2.23-.49S128.05,111.06,127.38,111.26Z" transform="translate(-78.33 -89.92)"/><path class="cls-1" d="M125.28,110.71a.48.48,0,0,1-.1-.17,1,1,0,0,0-.24-.25s-.11-.19-.19-.17,0,.26.06.32,0,.13,0,.16a.16.16,0,0,1-.1,0l-.34-.05-.17,0s-.1,0-.15,0a.07.07,0,0,0-.05.08s.05,0,.08,0l.18.07s.08,0,.09,0-.15.05-.18,0a.39.39,0,0,0-.21,0l0,0a0,0,0,0,0,0,0c.09,0,.18,0,.26.08s0,0,0,0-.11.07-.15.08a.06.06,0,0,0-.06,0,.08.08,0,0,0,0,0l0,0,.14,0s.09,0,.1,0,0,0,0,0,0,0-.06,0,0,0,0,0,0,0,0,.06a1.45,1.45,0,0,0,.29,0h.32a2.7,2.7,0,0,0,.41-.05.54.54,0,0,0,.34-.16l.06-.1a.42.42,0,0,0,0-.15.2.2,0,0,0,0-.15h0s0,0,0,0h-.19A.33.33,0,0,1,125.28,110.71Z" transform="translate(-78.33 -89.92)"/><path class="cls-1" d="M122.44,110.24s.13-.17.21-.14-.07.25-.1.31a.17.17,0,0,0,0,.17.19.19,0,0,0,.1,0c.12,0,.23,0,.35,0h.17s.11,0,.15,0a.07.07,0,0,1,0,.09s-.05,0-.08,0l-.2,0s-.08,0-.08,0,.14.07.16.07a.31.31,0,0,1,.21,0,0,0,0,0,1,0,0s0,0,0,0l-.27,0s0,0,0,0,.1.09.14.1,0,0,.06.05a.05.05,0,0,1,0,0H123s-.09,0-.1,0a0,0,0,0,0,0,0,.1.1,0,0,0,0,0,.07.07,0,0,1,0,.06s0,0-.06,0a.94.94,0,0,1-.29,0,.87.87,0,0,1-.32-.11C121.85,111,122.34,110.3,122.44,110.24Z" transform="translate(-78.33 -89.92)"/><path class="cls-14" d="M102.29,122.18a1.91,1.91,0,0,1-1.84,2H80.18a1.92,1.92,0,0,1-1.85-2V91.91a1.92,1.92,0,0,1,1.85-2h20.27a1.92,1.92,0,0,1,1.84,2Z" transform="translate(-78.33 -89.92)"/><path class="cls-13" d="M103.26,122.18a1.92,1.92,0,0,1-1.84,2H81.15a1.92,1.92,0,0,1-1.85-2V91.91a1.92,1.92,0,0,1,1.85-2h20.27a1.92,1.92,0,0,1,1.84,2Z" transform="translate(-78.33 -89.92)"/><path class="cls-15" d="M101.16,117.78a1.86,1.86,0,0,1-1.77,1.93H84.1a1.86,1.86,0,0,1-1.77-1.93V94.91A1.85,1.85,0,0,1,84.1,93H99.39a1.85,1.85,0,0,1,1.77,1.93Z" transform="translate(-78.33 -89.92)"/><path class="cls-16" d="M100.23,117.78a1.86,1.86,0,0,1-1.77,1.93H83.17a1.86,1.86,0,0,1-1.77-1.93V94.91A1.85,1.85,0,0,1,83.17,93H98.46a1.85,1.85,0,0,1,1.77,1.93Z" transform="translate(-78.33 -89.92)"/><path class="cls-14" d="M95.42,91.48a.26.26,0,0,1-.24.27H86.45a.26.26,0,0,1-.24-.27h0a.25.25,0,0,1,.24-.26h8.73a.25.25,0,0,1,.24.26Z" transform="translate(-78.33 -89.92)"/><rect class="cls-17" x="11.96" y="31.28" width="2.44" height="1.22" rx="0.61"/><rect class="cls-17" x="4.06" y="5.73" width="5.45" height="1.36"/><rect class="cls-17" x="5.31" y="16.12" width="7.14" height="1.36"/><rect class="cls-17" x="93.27" y="97.54" width="6.79" height="1.28" transform="translate(116.51 -88.41) rotate(90)"/><path class="cls-17" d="M96,99.71H88.36a1.86,1.86,0,0,1-1.79-1.92V94.21h1.28v3.58a.53.53,0,0,0,.51.55H96Z" transform="translate(-78.33 -89.92)"/><path class="cls-17" d="M96,99.71H88.36a1.86,1.86,0,0,1-1.79-1.92V94.21h1.28v3.58a.53.53,0,0,0,.51.55H96Z" transform="translate(-78.33 -89.92)"/><path class="cls-17" d="M96,99.71H88.36a1.86,1.86,0,0,1-1.79-1.92V94.21h1.28v3.58a.53.53,0,0,0,.51.55H96Z" transform="translate(-78.33 -89.92)"/><path class="cls-17" d="M96,99.71H88.36a1.86,1.86,0,0,1-1.79-1.92V94.21h1.28v3.58a.53.53,0,0,0,.51.55H96Z" transform="translate(-78.33 -89.92)"/><path class="cls-17" d="M91,113.35l-1.27,0,.08-8.2a2,2,0,0,1,.54-1.35,1.72,1.72,0,0,1,1.27-.54l3.35,0,0,1.36-3.34,0h0a.52.52,0,0,0-.36.16.54.54,0,0,0-.15.38Z" transform="translate(-78.33 -89.92)"/><path class="cls-17" d="M96.81,107a3,3,0,1,1,2.84-3A2.94,2.94,0,0,1,96.81,107Zm0-4.7a1.67,1.67,0,1,0,1.56,1.67A1.61,1.61,0,0,0,96.81,102.25Z" transform="translate(-78.33 -89.92)"/><path class="cls-17" d="M87.25,106.37l-1.27,0,0-1.42a.21.21,0,0,0-.06-.15.17.17,0,0,0-.14-.06h-.7a1.45,1.45,0,0,1-1-.48,1.62,1.62,0,0,1-.41-1.12l0-7.06H85l0,7.07a.21.21,0,0,0,.06.15.16.16,0,0,0,.13.06h.71a1.43,1.43,0,0,1,1,.48,1.58,1.58,0,0,1,.42,1.12Z" transform="translate(-78.33 -89.92)"/><rect class="cls-17" x="92.97" y="109.04" width="7.7" height="1.28" transform="translate(128.16 -77.06) rotate(90)"/><rect class="cls-13" x="4.97" y="19.5" width="5.34" height="5.43" rx="2"/><path class="cls-18" d="M85.22,110.41a4.3,4.3,0,0,1,.82-.07,1.3,1.3,0,0,1,.92.3,1,1,0,0,1,.28.74,1.1,1.1,0,0,1-.25.77,1.29,1.29,0,0,1-1,.39,1.65,1.65,0,0,1-.34,0v1.43h-.43Zm.43,1.72a1.16,1.16,0,0,0,.35,0,.72.72,0,0,0,.82-.76c0-.48-.31-.7-.77-.7a1.77,1.77,0,0,0-.4,0Z" transform="translate(-78.33 -89.92)"/><path class="cls-19" d="M114.56,115.29s-4.49-4.56-8.34-5.84c-3.61-1.19-12.34-1.14-15.9,5.12Z" transform="translate(-78.33 -89.92)"/><path class="cls-15" d="M110.1,114.61a22,22,0,0,0-5.12-4.75l1.88.16a27.46,27.46,0,0,1,6.71,4.83Z" transform="translate(-78.33 -89.92)"/><path class="cls-16" d="M105,109.86l1.22.11a29.42,29.42,0,0,1,6.71,4.83l-2.81-.19A22,22,0,0,0,105,109.86Z" transform="translate(-78.33 -89.92)"/><ellipse class="cls-8" cx="19.43" cy="31.48" rx="2.36" ry="2.8"/><ellipse class="cls-3" cx="18.99" cy="31.48" rx="2.36" ry="2.8"/><ellipse class="cls-20" cx="18.99" cy="31.38" rx="0.93" ry="1.11"/><ellipse class="cls-8" cx="37.05" cy="31.48" rx="2.36" ry="2.8"/><ellipse class="cls-3" cx="36.61" cy="31.48" rx="2.36" ry="2.8"/><ellipse class="cls-20" cx="36.61" cy="31.62" rx="0.95" ry="1.13"/><path class="cls-21" d="M121,121.87s1.27-6.14-4.42-6.62c-3.7-.31-22.47-.79-25.74-.87A2,2,0,0,0,89,115.53a12.49,12.49,0,0,0-.42,5.58l29.52.76Z" transform="translate(-78.33 -89.92)"/><path class="cls-21" d="M110.52,115.1s-4.23-5.65-8.08-6.25c-4.92-.78-10.2,0-15.06,5.72Z" transform="translate(-78.33 -89.92)"/><path class="cls-22" d="M117.5,121.87s1.69-6.29-4.19-6.77c-3.5-.29-20.36-.58-25.79-.69-.51,0-2.76.44-3.4,2a11.87,11.87,0,0,0-.13,5.22Z" transform="translate(-78.33 -89.92)"/><path class="cls-15" d="M108.51,114.4a9.72,9.72,0,0,0-8.77-5V114Z" transform="translate(-78.33 -89.92)"/><path class="cls-16" d="M108.51,114.4c-.18-.27-2.6-5.19-8.38-5V114Z" transform="translate(-78.33 -89.92)"/><path class="cls-15" d="M89.17,113.84c.2-.28,3-4.68,9.66-4.48V114Z" transform="translate(-78.33 -89.92)"/><path class="cls-16" d="M89.91,113.84a9.89,9.89,0,0,1,8.92-4.48V114Z" transform="translate(-78.33 -89.92)"/><path class="cls-19" d="M87.72,121.61h.14c-.1-6.51.62-7.08.65-7.11l-.06-.13C88.36,114.41,87.61,115,87.72,121.61Z" transform="translate(-78.33 -89.92)"/><polygon class="cls-19" points="20.91 31.77 21.03 19.44 20.89 19.43 20.77 31.77 20.91 31.77"/><rect class="cls-19" x="99.74" y="115.81" width="2.7" height="0.4" rx="0.2" transform="translate(123.84 142.09) rotate(180)"/><rect class="cls-21" x="100.02" y="115.81" width="2.42" height="0.4" rx="0.2" transform="translate(124.12 142.09) rotate(-180)"/><rect class="cls-19" x="89.17" y="115.81" width="2.7" height="0.4" rx="0.2" transform="translate(102.7 142.09) rotate(180)"/><rect class="cls-23" x="83.54" y="120.72" width="34.4" height="1.14" transform="translate(123.15 152.67) rotate(-180)"/><rect class="cls-24" x="39.61" y="30.8" width="3.45" height="1.14"/><path class="cls-25" d="M106.58,121.4a3.3,3.3,0,1,1,6.6,0c0,.12,0,.35,0,.47h-6.58C106.57,121.8,106.58,121.47,106.58,121.4Z" transform="translate(-78.33 -89.92)"/><path class="cls-26" d="M107.09,121.43a3,3,0,1,1,6.09,0c0,.11,0,.32,0,.44h-6.07Z" transform="translate(-78.33 -89.92)"/><ellipse class="cls-8" cx="31.76" cy="31.48" rx="2.36" ry="2.8"/><ellipse class="cls-3" cx="31.33" cy="31.48" rx="2.36" ry="2.8"/><ellipse class="cls-20" cx="31.33" cy="31.48" rx="0.85" ry="1.01"/><path class="cls-25" d="M89,121.4a3.3,3.3,0,1,1,6.6,0c0,.12,0,.35,0,.47H89Z" transform="translate(-78.33 -89.92)"/><path class="cls-26" d="M89.43,121.42a3.07,3.07,0,1,1,6.13,0c0,.12,0,.33,0,.45H89.44C89.43,121.8,89.43,121.49,89.43,121.42Z" transform="translate(-78.33 -89.92)"/><ellipse class="cls-8" cx="14.15" cy="31.48" rx="2.36" ry="2.8"/><ellipse class="cls-3" cx="13.71" cy="31.48" rx="2.36" ry="2.8"/><ellipse class="cls-20" cx="13.71" cy="31.48" rx="0.85" ry="1.01"/><path class="cls-19" d="M113.71,120.73h.14a4.06,4.06,0,0,0-4.15-3.65h0a3.59,3.59,0,0,0-3.71,3.65h.14a3.45,3.45,0,0,1,3.57-3.51h0A3.85,3.85,0,0,1,113.71,120.73Z" transform="translate(-78.33 -89.92)"/><path class="cls-19" d="M96.09,120.73h.14a4,4,0,0,0-4.13-3.65h0a3.57,3.57,0,0,0-3.68,3.65h.14a3.44,3.44,0,0,1,3.54-3.51h0A3.9,3.9,0,0,1,96.09,120.73Z" transform="translate(-78.33 -89.92)"/><rect class="cls-27" x="116.92" y="119.22" width="2.15" height="1.3" rx="0.65" transform="translate(157.66 149.81) rotate(-180)"/><rect class="cls-27" x="119.55" y="119.13" width="2.15" height="1.3" rx="0.65" transform="translate(162.92 149.64) rotate(180)"/><rect class="cls-27" x="83.54" y="115.84" width="2.15" height="1.3" rx="0.65" transform="translate(90.9 143.06) rotate(180)"/><ellipse class="cls-28" cx="33.31" cy="10.96" rx="3.9" ry="4.24"/><ellipse class="cls-29" cx="33.31" cy="10.66" rx="1.7" ry="1.85"/><polygon class="cls-28" points="33.31 21.07 36.85 12.74 29.77 12.74 33.31 21.07"/></svg>