<svg id="Layer_1" height="512" viewBox="0 0 512 512" width="512" xmlns="http://www.w3.org/2000/svg" data-name="Layer 1"><path d="m419.85 447.73a60.244 60.244 0 0 1 11.6 35.71 12.579 12.579 0 0 1 -12.64 12.56 60.312 60.312 0 0 1 -42.81-17.74l-.11-.11a41.769 41.769 0 0 0 -29.58-12.27h-180.62a41.769 41.769 0 0 0 -29.58 12.27l-.11.11a60.312 60.312 0 0 1 -42.81 17.74 12.579 12.579 0 0 1 -12.64-12.56 60.244 60.244 0 0 1 11.6-35.71q-1.59-1.95-3.12-3.91a33.005 33.005 0 0 1 -2.47-3.24c-103.3-173.12 31.51-273.34 78.63-293.99l.16-.33c16.86 8.2 51.42 13.82 91.32 13.82 39.17 0 73.21-5.42 90.39-13.38 47.34 20.89 181.5 121.06 78.38 293.88a33.005 33.005 0 0 1 -2.47 3.24q-1.53 1.965-3.12 3.91zm-49.81-126.44a114.04 114.04 0 1 0 -114.04 114.04 114.043 114.043 0 0 0 114.04-114.04z" fill="#f8ec7d"/><path d="m347.06 146.7c-17.18 7.96-51.22 13.38-90.39 13.38-39.9 0-74.46-5.62-91.32-13.82-7.02-3.41-10.97-7.27-10.97-11.35v-17.06l.1-.03c2.28 7.96 47.15 14.31 102.19 14.31s99.91-6.35 102.19-14.31l.1.03v17.06c0 4.26-4.3 8.27-11.9 11.79z" fill="#cc7350"/><path d="m358.96 117.18a2.035 2.035 0 0 1 -.1.64c-2.28 7.96-47.16 14.31-102.19 14.31s-99.91-6.35-102.19-14.31a2.035 2.035 0 0 1 -.1-.64c0-5.16 17.82-9.7 44.95-12.39a69.057 69.057 0 0 0 38.14 11.48h34.37a69.07 69.07 0 0 0 38.64-11.81c29.1 2.63 48.48 7.34 48.48 12.72z" fill="#e48e66"/><path d="m355.88 34.57-22.52 44.06a69.074 69.074 0 0 1 -61.52 37.64l2.63-13.82 11.38-59.76s-23.35-18.62-64.19 1.21c.21-.45 7.13-14.73 27.36-23.06s43.33-5.69 61.71 6.2c12.21 7.9 30.08 15.75 45.15 7.53z" fill="#e2d574"/><path d="m256 207.25a114.04 114.04 0 1 1 -114.04 114.04 114.043 114.043 0 0 1 114.04-114.04zm71.62 124.93v-9.73a8.246 8.246 0 0 0 -6.63-8.09l-44.38-8.87v-51.13a20.61 20.61 0 0 0 -41.22 0v51.13l-44.39 8.87a8.247 8.247 0 0 0 -6.62 8.09v9.73a4.121 4.121 0 0 0 4.12 4.12h46.89v31.09l-19.21 33.37a4.733 4.733 0 0 0 3.34 8.08l36.48-13.19 36.59 13.19a4.733 4.733 0 0 0 3.34-8.08l-19.32-33.37v-31.09h46.89a4.121 4.121 0 0 0 4.12-4.12z" fill="#6fe3ff"/><path d="m235.39 336.3h-46.89a4.121 4.121 0 0 1 -4.12-4.12v-9.73a8.247 8.247 0 0 1 6.62-8.09l44.39-8.87v-51.13a20.61 20.61 0 1 1 41.22 0v51.13l44.38 8.87a8.246 8.246 0 0 1 6.63 8.09v9.73a4.121 4.121 0 0 1 -4.12 4.12h-46.89v31.09l19.32 33.37a4.733 4.733 0 0 1 -3.34 8.08l-36.59-13.19-36.48 13.19a4.733 4.733 0 0 1 -3.34-8.08l19.21-33.37zm20.74-63.2a1.235 1.235 0 1 0 -1.23 1.23 1.231 1.231 0 0 0 1.23-1.23zm0 24.73a1.235 1.235 0 1 0 -1.23 1.23 1.231 1.231 0 0 0 1.23-1.23zm0 24.72a1.235 1.235 0 1 0 -1.23 1.24 1.229 1.229 0 0 0 1.23-1.24zm0 24.73a1.235 1.235 0 1 0 -1.23 1.24 1.229 1.229 0 0 0 1.23-1.24z" fill="#e48e66"/><path d="m285.85 42.69-11.38 59.76-2.63 13.82h-34.37a69.094 69.094 0 0 1 -63.83-42.64l-16.17-39.05c.54.66 23.81 28.94 64.18 9.33l.01-.01c40.84-19.83 64.19-1.21 64.19-1.21z" fill="#f8ec7d"/><path d="m254.9 271.86a1.235 1.235 0 1 1 -1.24 1.24 1.231 1.231 0 0 1 1.24-1.24z" fill="#6fe3ff"/><path d="m254.9 296.59a1.235 1.235 0 1 1 -1.24 1.24 1.231 1.231 0 0 1 1.24-1.24z" fill="#6fe3ff"/><path d="m254.9 321.32a1.235 1.235 0 1 1 -1.24 1.23 1.229 1.229 0 0 1 1.24-1.23z" fill="#6fe3ff"/><path d="m254.9 346.05a1.235 1.235 0 1 1 -1.24 1.23 1.229 1.229 0 0 1 1.24-1.23z" fill="#6fe3ff"/><g fill="#63316d"><path d="m461.188 264.875c-9.737-30.538-27.647-58.468-53.235-83.014a226.466 226.466 0 0 0 -48.661-35.806c3.76-3.358 5.668-7.083 5.668-11.145v-17.06c0-.135-.012-.267-.021-.4 0-.091.021-.18.021-.271 0-8.622-12.5-11.832-17.835-13.2a188.676 188.676 0 0 0 -21.952-3.952 75.225 75.225 0 0 0 13.527-18.667l22.52-44.06a6 6 0 0 0 -8.216-8c-12.435 6.786-28.081-.224-39.018-7.3-20.34-13.159-45.486-15.667-67.251-6.708-18 7.413-26.544 19.257-29.386 24.012-34.748 15.845-54.4-7.505-55.235-8.523-.083-.1-.174-.194-.262-.289-.017-.019-.03-.042-.047-.06s-.022-.016-.032-.026a5.87 5.87 0 0 0 -.816-.7c-.043-.03-.083-.063-.127-.093a5.911 5.911 0 0 0 -.854-.476c-.068-.031-.132-.065-.2-.094a6.168 6.168 0 0 0 -.864-.279c-.085-.021-.168-.045-.254-.062a6.1 6.1 0 0 0 -.873-.105c-.091 0-.18-.013-.271-.014a6.135 6.135 0 0 0 -.876.063c-.09.013-.179.021-.268.038a5.845 5.845 0 0 0 -.855.232c-.088.03-.174.056-.26.09a5.893 5.893 0 0 0 -.8.4c-.083.048-.167.094-.248.147a6.226 6.226 0 0 0 -.531.386c-.073.06-.139.126-.208.188-.043.039-.094.066-.136.106s-.053.063-.083.092a6.275 6.275 0 0 0 -.47.525c-.07.089-.134.18-.2.273q-.146.207-.273.425c-.066.11-.128.22-.186.334a5.9 5.9 0 0 0 -.241.547c-.039.1-.074.2-.106.3a5.958 5.958 0 0 0 -.17.629c-.018.084-.03.169-.043.254a5.972 5.972 0 0 0 -.068.6c0 .081-.01.16-.011.241a6.132 6.132 0 0 0 .028.754c.006.056.017.111.023.167a6.365 6.365 0 0 0 .13.68c.013.049.023.1.035.146a6 6 0 0 0 .269.754c.009.022.014.045.023.066l16.111 38.908a74.866 74.866 0 0 0 16.485 24.558c-31.445 4.386-36.2 10.574-36.2 16.694 0 .091.017.179.02.27-.008.133-.02.265-.02.4v17.06c0 3.883 1.743 7.458 5.172 10.695a225.324 225.324 0 0 0 -49.25 36.013c-25.666 24.543-43.64 52.482-53.427 83.048-17.675 55.2-7.4 115.42 30.523 178.982a23.638 23.638 0 0 0 2.216 3.022c.228.276.456.552.676.835l.407.521a66.032 66.032 0 0 0 -10.152 35.422 18.635 18.635 0 0 0 18.64 18.552 66.063 66.063 0 0 0 47.043-19.488l.125-.125a35.538 35.538 0 0 1 25.332-10.507h180.62a35.547 35.547 0 0 1 25.346 10.52l.1.1a66.069 66.069 0 0 0 47.054 19.5 18.637 18.637 0 0 0 18.64-18.556 66.026 66.026 0 0 0 -10.15-35.418c.137-.174.272-.348.407-.522.22-.282.448-.558.676-.834a23.586 23.586 0 0 0 2.212-3.016c37.88-63.486 48.173-123.636 30.593-178.779zm-118.131-122.961c-17.489 7.523-50.3 12.166-86.387 12.166-37.374 0-72.189-5.187-88.7-13.217-6.3-3.062-7.591-5.474-7.591-5.953v-6.256c5.352 1.866 13.142 3.641 24.575 5.247 19.409 2.727 44.878 4.229 71.715 4.229s52.3-1.5 71.711-4.229c11.434-1.606 19.226-3.381 24.579-5.247v6.256c0 .487-1.273 2.815-7.268 5.791a6 6 0 0 0 -2.634 1.213zm-91.757-115.526c18.131-7.46 39.128-5.334 56.168 5.69 13.357 8.642 25.842 12.64 36.859 11.906l-16.308 31.916a63.312 63.312 0 0 1 -20.873 23.573l-.084.056a62.846 62.846 0 0 1 -27.89 10.315l12.572-66.03a6 6 0 0 0 -2.153-5.814c-.85-.679-17.176-13.285-45.662-7.948a57.767 57.767 0 0 1 7.371-3.664zm-80.2 25.44a54.435 54.435 0 0 0 22.932 5.025c8.819 0 18.938-2.059 30.234-7.546.025-.012.046-.026.07-.038 29.078-14.1 47.949-7.347 54.849-3.688l-12.311 64.689h-29.4a62.94 62.94 0 0 1 -34.759-10.44l-.1-.065a62.879 62.879 0 0 1 -23.425-28.431zm26.769 59.145a74.878 74.878 0 0 0 39.6 11.3h34.37a74.819 74.819 0 0 0 40.161-11.647c21.653 2.059 32.3 4.73 37.357 6.547-4.1 1.468-11.888 3.5-26.278 5.332-18.36 2.337-41.943 3.625-66.4 3.625s-48.048-1.288-66.407-3.625c-14.459-1.841-22.248-3.883-26.333-5.353 5.279-1.866 15.761-4.279 33.936-6.179zm222.415 326.539a14.348 14.348 0 0 1 -1.162 1.524c-.3.363-.6.728-.888 1.1q-1.486 1.911-3.033 3.8a6 6 0 0 0 -.2 7.332 54.094 54.094 0 0 1 10.446 32.163 6.619 6.619 0 0 1 -6.637 6.569 54.161 54.161 0 0 1 -38.577-15.992l-.1-.095a47.457 47.457 0 0 0 -33.823-14.033h-180.62a47.444 47.444 0 0 0 -33.813 14.02l-.121.121a54.151 54.151 0 0 1 -38.566 15.979 6.618 6.618 0 0 1 -6.64-6.564 54.1 54.1 0 0 1 10.45-32.167 6 6 0 0 0 -.2-7.332q-1.547-1.9-3.033-3.8c-.289-.372-.589-.737-.888-1.1a14.276 14.276 0 0 1 -1.166-1.531c-36.09-60.482-45.983-117.4-29.4-169.179 20.176-63.012 75.268-102.378 103.334-115.351 19.034 8.12 53.377 13.105 91.027 13.105 37.035 0 71.177-4.878 90.326-12.811 28.183 13.245 82.8 52.655 102.758 115.251 16.487 51.724 6.573 108.579-29.474 168.991z"/><path d="m256 201.25a120.04 120.04 0 1 0 120.04 120.04 120.176 120.176 0 0 0 -120.04-120.04zm0 228.08a108.04 108.04 0 1 1 108.04-108.04 108.163 108.163 0 0 1 -108.04 108.04z"/><path d="m322.166 308.476-39.556-7.9v-46.216a26.61 26.61 0 0 0 -53.22 0v46.21l-39.567 7.907a14.282 14.282 0 0 0 -11.443 13.973v9.73a10.132 10.132 0 0 0 10.12 10.12h40.89v23.487l-18.09 31.429a10.734 10.734 0 0 0 8.223 17.624 5.994 5.994 0 0 0 2.04-.358l34.437-12.453 34.552 12.455a5.984 5.984 0 0 0 2.035.356 10.734 10.734 0 0 0 8.217-17.631l-18.2-31.43v-23.479h40.896a10.132 10.132 0 0 0 10.12-10.12v-9.73a14.284 14.284 0 0 0 -11.454-13.974zm-.546 21.824h-39.01v-6.37a6 6 0 1 0 -12 0v43.46a6 6 0 0 0 .808 3.006l17.876 30.878-31.259-11.269a6.011 6.011 0 0 0 -4.075 0l-31.151 11.264 17.781-30.887a6.014 6.014 0 0 0 .8-2.994v-43.458a6 6 0 1 0 -12 0v6.37h-39.01v-7.85a2.25 2.25 0 0 1 1.8-2.206l44.389-8.87a6 6 0 0 0 4.825-5.884v-51.13a14.61 14.61 0 1 1 29.22 0v51.13a6 6 0 0 0 4.825 5.884l44.381 8.87a2.253 2.253 0 0 1 1.8 2.206z"/><path d="m254.9 265.86a7.235 7.235 0 1 0 7.23 7.24 7.248 7.248 0 0 0 -7.23-7.24z"/><path d="m254.9 290.59a7.235 7.235 0 1 0 7.23 7.24 7.248 7.248 0 0 0 -7.23-7.24z"/><path d="m254.9 315.32a7.235 7.235 0 1 0 7.23 7.23 7.243 7.243 0 0 0 -7.23-7.23z"/><path d="m254.9 340.05a7.235 7.235 0 1 0 7.23 7.23 7.243 7.243 0 0 0 -7.23-7.23z"/></g></svg>