<?xml version="1.0" encoding="utf-8"?>
<!-- Generator: Adobe Illustrator 25.4.1, SVG Export Plug-In . SVG Version: 6.00 Build 0)  -->
<svg version="1.1" id="Layer_1" xmlns="http://www.w3.org/2000/svg" xmlns:xlink="http://www.w3.org/1999/xlink" x="0px" y="0px"
	 viewBox="0 0 24 24" style="enable-background:new 0 0 24 24;" xml:space="preserve">
<style type="text/css">
	.st0{fill:none;}
	.st1{fill-rule:evenodd;clip-rule:evenodd;}
	.st2{opacity:0.3;enable-background:new    ;}
</style>
<desc>Created with Sketch.</desc>
<g id="Stockholm-icons-_x2F_-Weather-_x2F_-Cloud-wind">
	<polygon id="Shape" class="st0" points="0,0 24,0 24,24 0,24 	"/>
	<path id="Combined-Shape" class="st1" d="M18.3,1C19.9,2,21,3.9,21,6c0,3.3-2.7,6-6,6c-2.8,0-5.1-1.9-5.8-4.5l-2.4,0
		C4.7,7.5,3,5.8,3,3.7S4.7,0,6.8,0l9,0C16.7,0,17.6,0.4,18.3,1z"/>
	<path id="Path-34" class="st2" d="M4,14v2h13.5c0.8,0,1.5,0.7,1.5,1.5V18c0,0.6-0.4,1-1,1s-1-0.4-1-1v-1h-2v1c0,1.7,1.3,3,3,3
		s3-1.3,3-3v-0.5c0-1.9-1.6-3.5-3.5-3.5H4z"/>
	<path id="Path-34-Copy-2" class="st2" d="M4,17v2h6.5c0.8,0,1.5,0.7,1.5,1.5V21c0,0.6-0.4,1-1,1s-1-0.4-1-1v-1H8v1c0,1.7,1.3,3,3,3
		s3-1.3,3-3v-0.5c0-1.9-1.6-3.5-3.5-3.5H4z"/>
</g>
</svg>
