<?xml version="1.0" encoding="utf-8"?>
<!-- Generator: Adobe Illustrator 25.4.1, SVG Export Plug-In . SVG Version: 6.00 Build 0)  -->
<svg version="1.0" id="Layer_1" xmlns="http://www.w3.org/2000/svg" xmlns:xlink="http://www.w3.org/1999/xlink" x="0px" y="0px"
	 viewBox="0 0 24 24" style="enable-background:new 0 0 24 24;" xml:space="preserve">
<style type="text/css">
	.st0{fill:none;}
	.st1{fill-rule:evenodd;clip-rule:evenodd;}
	.st2{opacity:0.3;enable-background:new    ;}
</style>
<desc>Created with Sketch.</desc>
<g id="Stockholm-icons-_x2F_-Weather-_x2F_-Cloud-wind">
	<polygon id="Shape" class="st0" points="37.6,24 61.6,24 61.6,0 37.6,0 	"/>
	<path id="Combined-Shape" class="st1" d="M55.9,23c1.7-1.1,2.7-2.9,2.7-5c0-3.3-2.7-6-6-6c-2.8,0-5.1,1.9-5.8,4.5l-2.4,0
		c-2.1,0-3.7,1.7-3.7,3.8c0,2.1,1.7,3.7,3.8,3.7l9,0C54.4,24,55.2,23.6,55.9,23z"/>
	<path id="Path-34" class="st2" d="M41.6,10V8h13.5c0.8,0,1.5-0.7,1.5-1.5V6c0-0.6-0.4-1-1-1s-1,0.4-1,1v1h-2V6c0-1.7,1.3-3,3-3
		c1.7,0,3,1.3,3,3v0.5c0,1.9-1.6,3.5-3.5,3.5H41.6z"/>
	<path id="Path-34-Copy-2" class="st2" d="M41.6,7V5h6.5c0.8,0,1.5-0.7,1.5-1.5V3c0-0.6-0.4-1-1-1s-1,0.4-1,1v1h-2V3
		c0-1.7,1.3-3,3-3c1.7,0,3,1.3,3,3v0.5c0,1.9-1.6,3.5-3.5,3.5H41.6z"/>
</g>
</svg>
