<svg height="489pt" viewBox="0 -32 489 489" width="489pt" xmlns="http://www.w3.org/2000/svg"><path d="m357.992188 16-66.578126 66.574219-66.574218-66.574219h-1.304688l-56 56h72.96875-72.96875l-64 64h88.96875-88.96875l-64 64h48.96875-48.96875l-28.214844 28.214844 35.785157 35.785156h113.398437-113.398437l150.488281 150.488281 280.09375-280.097656-118.390625-118.390625zm0 0" fill="#9bc9ff"/><g fill="#1e81ce"><path d="m362.609375 8h-142.402344l-56 56h-83.703125v16h67.71875l-48 48h-51.71875v16h35.71875l-48 48h-35.71875v16h19.710938l-20.214844 20.214844 27.792969 27.785156h-27.289063v16h43.289063l153.800781 153.800781 291.40625-291.402343zm-23.929687 16-47.265626 47.265625-47.261718-47.265625zm-272.265626 248h94.089844v-16h-110.089844l-27.78125-27.785156 20.214844-20.214844h45.65625v-16h-29.65625l48-48h85.65625v-16h-69.65625l48-48h69.65625v-16h-53.65625l37.335938-37.335938 67.199218 67.199219 67.203126-67.199219 107.789062 107.734376-268.800781 268.800781zm0 0"/><path d="m.503906 0h160v16h-160zm0 0"/><path d="m.503906 320h72v16h-72zm0 0"/></g></svg>