<svg id="Capa_1" enable-background="new 0 0 512 512" height="512" viewBox="0 0 512 512" width="512" xmlns="http://www.w3.org/2000/svg" xmlns:xlink="http://www.w3.org/1999/xlink"><linearGradient id="SVGID_1_" gradientUnits="userSpaceOnUse" x1="283.281" x2="235.281" y1="402.899" y2="134.232"><stop offset=".0112" stop-color="#dcfdee"/><stop offset=".7774" stop-color="#ccddfb"/><stop offset="1" stop-color="#c7d3ff"/></linearGradient><path d="m501.873 135.456c-22.357-56.888-91.226-91.003-149.556-68.427-68.57 26.539-43.27 131.236-104.983 153.088-32.669 11.568-80.963-31.644-113.969-38.27-60.821-12.21-115.881 30.705-129.439 90.134-13.832 60.63 8.353 141.61 74.967 158.066 79.35 19.602 120.683-51.729 187.249-72.211 68.31-21.019 144.263 28.622 200.814-31.776 41.78-44.621 57.055-134.272 34.917-190.604z" fill="url(#SVGID_1_)"/><path d="m410.473 406.17h-20.713v-193.148c0-6.83-3.28-12.88-8.34-16.68-3.48-2.62-7.81-4.17-12.5-4.17h-50.25v-83.97c0-4.41-5.29-6.66-8.47-3.61l-8.66 8.31c-1.93 1.86-4.99 1.86-6.92 0l-13.66-13.11c-1.94-1.86-4.99-1.86-6.93 0l-13.66 13.11c-1.93 1.86-4.99 1.86-6.92 0l-13.66-13.11c-1.94-1.86-4.99-1.86-6.93 0l-13.65 13.11c-1.94 1.86-4.99 1.86-6.93 0l-13.66-13.11c-1.93-1.86-4.99-1.86-6.92 0l-13.66 13.11c-1.93 1.86-4.99 1.86-6.92 0l-8.66-8.31c-3.17-3.05-8.46-.8-8.46 3.61v83.97h-52.93c-11.51 0-20.84 9.33-20.84 20.85v193.148h-20.705c-6.89 0-12.476 5.586-12.476 12.476v11.465c0 12.09 9.797 21.898 21.898 21.898h332.104c12.101 0 21.898-9.807 21.898-21.898v-11.465c0-6.89-5.586-12.476-12.476-12.476z" fill="#2626bc" opacity=".11"/><path d="m410.76 195.02v208.93c0 2.76-2.24 5-5 5h-304.53v-213.93c0-11.52 9.33-20.85 20.84-20.85h267.85c.15 0 .3 0 .45.01 4.52.09 8.68 1.62 12.05 4.16 5.06 3.8 8.34 9.85 8.34 16.68z" fill="#ffa8cf"/><path d="m390.99 186.09c-1.58 24.57-21.2 44.64-45.73 46.72-11.9 1.01-23.01-2.14-32.08-8.14l-16.01 7.05c-3.31 1.45-6.68-1.92-5.22-5.22l7.05-16.02c-6-9.06-9.15-20.17-8.14-32.07.12-1.43.3-2.85.55-4.24h98.51c.15 0 .3 0 .45.01.65 3.84.88 7.83.62 11.91z" fill="#ff7eb8"/><path d="m410.763 363.322v40.63c0 2.76-2.24 5-5 5h-304.53v-45.63z" fill="#6583fe"/><path d="m443.949 400.646v11.465c0 12.09-9.797 21.898-21.898 21.898h-332.104c-12.101 0-21.898-9.807-21.898-21.898v-11.465c0-6.89 5.586-12.476 12.476-12.476h107.067c1.849 0 3.548 1.021 4.416 2.654l6.56 12.348c.868 1.633 2.566 2.654 4.416 2.654h106.031c1.849 0 3.548-1.021 4.416-2.654l6.56-12.348c.868-1.633 2.566-2.654 4.415-2.654h107.067c6.89 0 12.476 5.586 12.476 12.476z" fill="#b7c5ff"/><path d="m443.95 400.642v11.47c0 12.09-9.8 21.9-21.9 21.9h-14.72c12.1 0 21.9-9.81 21.9-21.9v-11.47c0-6.89-5.59-12.47-12.48-12.47h14.72c6.89 0 12.48 5.58 12.48 12.47z" fill="#d2deff"/><path d="m149.65 406.289h-43.333c-2.761 0-5-2.239-5-5v-13.119h53.333v13.118c0 2.762-2.239 5.001-5 5.001z" fill="#ff7eb8"/><path d="m405.558 406.289h-43.333c-2.761 0-5-2.239-5-5v-13.119h53.333v13.118c0 2.762-2.239 5.001-5 5.001z" fill="#ff7eb8"/><path d="m339.67 90.2v273.12h-164.67v-273.12c0-4.41 5.29-6.66 8.46-3.61l8.66 8.31c1.93 1.86 4.99 1.86 6.92 0l13.66-13.11c1.93-1.86 4.99-1.86 6.92 0l13.66 13.11c1.94 1.86 4.99 1.86 6.93 0l13.65-13.11c1.94-1.86 4.99-1.86 6.93 0l13.66 13.11c1.93 1.86 4.99 1.86 6.92 0l13.66-13.11c1.94-1.86 4.99-1.86 6.93 0l13.66 13.11c1.93 1.86 4.99 1.86 6.92 0l8.66-8.31c3.18-3.05 8.47-.8 8.47 3.61z" fill="#d2deff"/><path d="m339.67 174.17v58.8c-9.78-.22-18.85-3.25-26.49-8.3l-16.01 7.05c-3.31 1.45-6.68-1.92-5.22-5.22l7.05-16.02c-6-9.06-9.15-20.17-8.14-32.07.12-1.43.3-2.85.55-4.24z" fill="#b7c5ff"/><path d="m254.5 149.438h-79.5v-23.346h79.5c2.761 0 5 2.239 5 5v13.346c0 2.761-2.239 5-5 5z" fill="#02ffb3"/><path d="m390.986 172.56c1.943-30.338-23.074-55.355-53.412-53.412-24.566 1.574-44.636 21.198-46.718 45.726-1.01 11.898 2.142 23.014 8.147 32.075l-7.051 16.013c-1.456 3.307 1.914 6.677 5.221 5.221l16.013-7.051c9.061 6.005 20.178 9.157 32.075 8.147 24.527-2.083 44.151-22.153 45.725-46.719z" fill="#02ffb3"/><path d="m216.206 248.581h-14.195c-2.762 0-5-2.239-5-5s2.238-5 5-5h14.195c2.762 0 5 2.239 5 5s-2.238 5-5 5z" fill="#ffa8cf"/><path d="m309.989 248.581h-65.195c-2.762 0-5-2.239-5-5s2.238-5 5-5h65.195c2.762 0 5 2.239 5 5s-2.238 5-5 5z" fill="#fff"/><path d="m216.206 271.72h-14.195c-2.762 0-5-2.239-5-5s2.238-5 5-5h14.195c2.762 0 5 2.239 5 5s-2.238 5-5 5z" fill="#02ffb3"/><path d="m309.989 271.72h-65.195c-2.762 0-5-2.239-5-5s2.238-5 5-5h65.195c2.762 0 5 2.239 5 5s-2.238 5-5 5z" fill="#fff"/><path d="m216.206 294.859h-14.195c-2.762 0-5-2.239-5-5s2.238-5 5-5h14.195c2.762 0 5 2.239 5 5s-2.238 5-5 5z" fill="#02ffb3"/><path d="m309.989 294.859h-65.195c-2.762 0-5-2.239-5-5s2.238-5 5-5h65.195c2.762 0 5 2.239 5 5s-2.238 5-5 5z" fill="#fff"/><path d="m216.206 317.997h-14.195c-2.762 0-5-2.239-5-5s2.238-5 5-5h14.195c2.762 0 5 2.239 5 5s-2.238 5-5 5z" fill="#02ffb3"/><path d="m309.989 317.997h-65.195c-2.762 0-5-2.239-5-5s2.238-5 5-5h65.195c2.762 0 5 2.239 5 5s-2.238 5-5 5z" fill="#fff"/><path d="m216.206 341.136h-14.195c-2.762 0-5-2.239-5-5s2.238-5 5-5h14.195c2.762 0 5 2.239 5 5s-2.238 5-5 5z" fill="#ffa8cf"/><path d="m309.989 341.136h-65.195c-2.762 0-5-2.239-5-5s2.238-5 5-5h65.195c2.762 0 5 2.239 5 5s-2.238 5-5 5z" fill="#fff"/><path d="m431.473 383.17h-15.705v-188.151c0-11.894-8.314-22.301-19.682-25.101.158-14.851-5.642-29.182-16.165-39.705-9.467-9.467-22.013-15.097-35.254-16.017v-23.996c0-4.014-2.386-7.625-6.078-9.199-3.691-1.575-7.951-.795-10.847 1.984l-8.663 8.314-13.661-13.113c-3.882-3.726-9.966-3.728-13.85 0l-13.659 13.112-13.657-13.112c-3.883-3.728-9.967-3.728-13.852 0l-13.657 13.112-13.657-13.111c-3.883-3.729-9.967-3.729-13.852 0l-13.654 13.11-8.654-8.309c-2.896-2.781-7.151-3.561-10.847-1.986-3.692 1.574-6.079 5.185-6.079 9.199v78.972h-47.924c-14.251 0-25.846 11.594-25.846 25.845v188.152h-15.705c-9.636 0-17.476 7.84-17.476 17.476v11.464c0 14.832 12.066 26.898 26.897 26.898h252.004c2.762 0 5-2.239 5-5s-2.238-5-5-5h-252.003c-9.317 0-16.897-7.581-16.897-16.898v-11.464c0-4.123 3.354-7.476 7.476-7.476h15.791v8.118c0 5.514 4.486 10 10 10h43.333c5.514 0 10-4.486 10-10v-8.118h27.943l6.56 12.346c1.738 3.275 5.122 5.309 8.831 5.309h106.031c3.707 0 7.091-2.034 8.832-5.308l6.56-12.348h27.818v8.118c0 5.514 4.486 10 10 10h43.333c5.514 0 10-4.486 10-10v-8.118h15.915c4.123 0 7.477 3.354 7.477 7.476v11.464c0 9.317-7.581 16.898-16.898 16.898h-52.002c-2.762 0-5 2.239-5 5s2.238 5 5 5h52.001c14.832 0 26.898-12.066 26.898-26.898v-11.464c0-9.635-7.84-17.475-17.476-17.475zm-45.478-210.93c-1.415 22.104-19.109 40.184-41.158 42.056-10.335.876-20.326-1.658-28.891-7.333-.832-.551-1.794-.832-2.762-.832-.684 0-1.37.14-2.015.424l-13.564 5.973 5.973-13.564c.686-1.558.532-3.357-.408-4.777-5.675-8.563-8.211-18.553-7.332-28.89 1.871-22.048 19.951-39.743 42.055-41.159 13.03-.837 25.769 3.957 34.957 13.146s13.98 21.93 13.145 34.956zm-205.995-82.037 8.654 8.309c3.883 3.73 9.969 3.729 13.852 0l13.654-13.11 13.657 13.111c3.885 3.729 9.969 3.728 13.852 0l13.657-13.112 13.658 13.112c3.884 3.727 9.967 3.727 13.851 0l13.658-13.113 13.662 13.113c3.883 3.728 9.968 3.727 13.849 0l8.663-8.314v24.188c-25.816 2.897-46.58 23.987-48.794 50.063-.991 11.672 1.593 22.991 7.484 32.91l-5.982 13.587c-1.501 3.409-.77 7.313 1.864 9.946 2.635 2.634 6.538 3.366 9.947 1.865l13.587-5.983c6.758 4.014 14.167 6.486 21.894 7.345v111.015c0 2.761 2.238 5 5 5s5-2.239 5-5v-110.81c.339-.023.676-.036 1.016-.065 24.523-2.082 44.632-20.572 49.351-44.239 6.276 2.154 10.734 8.176 10.734 14.998v163.304h-66.101-159.667zm-57.924 88.971h47.924v179.149h-63.77v-163.304c0-8.737 7.109-15.845 15.846-15.845zm27.58 222.114h-43.34v-8.118h43.335zm165.918-12.809-6.56 12.347h-106.031l-6.56-12.346c-1.738-3.275-5.123-5.31-8.831-5.31h-81.362v-14.847h299.537v14.847h-81.361c-3.707 0-7.091 2.034-8.832 5.309zm89.99 12.809h-43.34v-8.118h43.335z" fill="#2626bc"/><path d="m264.67 379.289h-17.342c-2.762 0-5 2.239-5 5s2.238 5 5 5h17.342c2.762 0 5-2.239 5-5s-2.238-5-5-5z" fill="#2626bc"/><path d="m327.425 188.037h-4.89c-6.197 0-11.238-5.042-11.238-11.238v-15.091c0-6.197 5.041-11.238 11.238-11.238h4.89c6.197 0 11.238 5.042 11.238 11.238v15.091c0 6.197-5.041 11.238-11.238 11.238zm-4.89-27.568c-.683 0-1.238.556-1.238 1.238v15.091c0 .683.556 1.238 1.238 1.238h4.89c.683 0 1.238-.556 1.238-1.238v-15.091c0-.683-.556-1.238-1.238-1.238z" fill="#ffa8cf"/><path d="m365.464 187.633h-16.606c-2.122 0-4.012-1.339-4.716-3.341s-.068-4.23 1.586-5.559c4.59-3.687 11.686-10.405 13.088-13.799.595-1.439.293-2.721-.188-3.44-.461-.689-1.124-1.025-2.027-1.025-1.512 0-2.742 1.23-2.742 2.742 0 2.761-2.238 5-5 5s-5-2.239-5-5c0-7.026 5.716-12.742 12.742-12.742 4.248 0 8.018 1.992 10.34 5.466 2.483 3.713 2.901 8.505 1.118 12.819-1.167 2.822-3.672 5.991-6.383 8.879h3.789c2.762 0 5 2.239 5 5s-2.239 5-5.001 5z" fill="#ffa8cf"/><g fill="#ff7eb8"><path d="m238.5 185.787c0-9.161-7.453-16.613-16.613-16.613s-16.613 7.453-16.613 16.613c0 4.518 1.818 8.615 4.755 11.613-2.936 2.998-4.755 7.095-4.755 11.613 0 2.761 2.238 5 5 5s5-2.239 5-5c0-3.646 2.967-6.613 6.613-6.613s6.613 2.967 6.613 6.613c0 2.761 2.238 5 5 5s5-2.239 5-5c0-4.518-1.818-8.615-4.755-11.613 2.937-2.998 4.755-7.095 4.755-11.613zm-16.613-6.613c3.646 0 6.613 2.967 6.613 6.613s-2.967 6.613-6.613 6.613-6.613-2.967-6.613-6.613 2.966-6.613 6.613-6.613z"/><path d="m425.945 134.342c0 2.761 2.238 5 5 5s5-2.239 5-5v-3.25h3.25c2.762 0 5-2.239 5-5s-2.238-5-5-5h-3.25v-3.25c0-2.761-2.238-5-5-5s-5 2.239-5 5v3.25h-3.25c-2.762 0-5 2.239-5 5s2.238 5 5 5h3.25z"/><path d="m446.027 167.358h-3.25v-3.25c0-2.761-2.238-5-5-5s-5 2.239-5 5v3.25h-3.25c-2.762 0-5 2.239-5 5s2.238 5 5 5h3.25v3.25c0 2.761 2.238 5 5 5s5-2.239 5-5v-3.25h3.25c2.762 0 5-2.239 5-5s-2.238-5-5-5z"/></g><path d="m68.05 342.132h-3.25v-3.25c0-2.761-2.238-5-5-5s-5 2.239-5 5v3.25h-3.25c-2.762 0-5 2.239-5 5s2.238 5 5 5h3.25v3.25c0 2.761 2.238 5 5 5s5-2.239 5-5v-3.25h3.25c2.762 0 5-2.239 5-5s-2.238-5-5-5z" fill="#8399fe"/><path d="m136.233 129.342h-3.25v-3.25c0-2.761-2.238-5-5-5s-5 2.239-5 5v3.25h-3.25c-2.762 0-5 2.239-5 5s2.238 5 5 5h3.25v3.25c0 2.761 2.238 5 5 5s5-2.239 5-5v-3.25h3.25c2.762 0 5-2.239 5-5s-2.238-5-5-5z" fill="#01eca5"/><path d="m464.338 381.165c-3.739 0-7.479-1.423-10.325-4.27-5.693-5.693-5.693-14.957-.001-20.651 5.695-5.694 14.958-5.694 20.651 0s5.693 14.958 0 20.652c-2.847 2.846-6.586 4.269-10.325 4.269zm0-19.197c-1.179 0-2.357.449-3.255 1.346-1.794 1.794-1.794 4.715 0 6.509 1.795 1.795 4.715 1.795 6.51 0 1.794-1.794 1.794-4.715-.001-6.51-.897-.896-2.075-1.345-3.254-1.345z" fill="#01eca5"/></svg>