<?xml version="1.0" encoding="iso-8859-1"?>
<!-- Generator: Adobe Illustrator 19.0.0, SVG Export Plug-In . SVG Version: 6.00 Build 0)  -->
<svg version="1.1" id="Capa_1" xmlns="http://www.w3.org/2000/svg" xmlns:xlink="http://www.w3.org/1999/xlink" x="0px" y="0px"
	 viewBox="0 0 479.924 479.924" style="enable-background:new 0 0 479.924 479.924;" xml:space="preserve">
<g>
	<path style="fill:#78B9EB;" d="M143.991,328v96h192v-96H143.991z M295.991,392c-8.837,0-16-7.163-16-16c0,8.837-7.163,16-16,16
		s-16-7.163-16-16s7.163-16,16-16s16,7.163,16,16c0-8.837,7.163-16,16-16s16,7.163,16,16S304.828,392,295.991,392z"/>
	<path style="fill:#78B9EB;" d="M143.991,280h192v24h-192V280z"/>
	<circle style="fill:#78B9EB;" cx="295.991" cy="376" r="16"/>
</g>
<g>
	<path style="fill:#1E81CE;" d="M396.791,147.784C381.287,78.867,312.85,35.567,243.933,51.071
		c-34.888,7.849-64.896,29.944-82.75,60.928h-1.192c-50.189,0.125-93.158,36.006-102.232,85.368
		c-45.636,16.715-69.082,67.26-52.367,112.897C18.089,344.93,51.073,367.986,87.991,368h32v-16h-32
		c-39.765-0.004-71.997-32.242-71.993-72.007c0.003-31.748,20.8-59.746,51.193-68.921c3.003-0.915,5.193-3.503,5.6-6.616
		c5.841-43.714,43.097-76.38,87.2-76.456c1.256,0,2.488,0.088,3.72,0.168l1.6,0.104c3.147,0.234,6.126-1.448,7.552-4.264
		c28.665-54.758,96.293-75.911,151.051-47.246c30.533,15.983,51.998,45.143,58.189,79.046c0.575,3.189,3.017,5.716,6.184,6.4
		c51.8,11.305,84.627,62.462,73.322,114.262c-9.609,44.03-48.552,75.448-93.618,75.53h-8v16h8
		c61.856-0.037,111.97-50.211,111.933-112.067C479.894,205.219,445.791,160.854,396.791,147.784z"/>
	<path style="fill:#1E81CE;" d="M335.991,272h-192c-4.418,0-8,3.582-8,8v144c0,4.418,3.582,8,8,8h192c4.418,0,8-3.582,8-8V280
		C343.991,275.581,340.41,272,335.991,272z M327.991,288v8h-176v-8H327.991z M327.991,320h-176v-8h176V320z M151.991,416v-80h176v80
		H151.991z"/>
	<path style="fill:#1E81CE;" d="M295.991,352c-5.923,0.021-11.627,2.245-16,6.24c-9.809-8.915-24.987-8.191-33.903,1.617
		c-8.915,9.809-8.191,24.987,1.617,33.903c9.154,8.32,23.132,8.32,32.285,0c9.809,8.915,24.987,8.19,33.903-1.618
		c8.915-9.809,8.19-24.987-1.618-33.903C307.822,354.191,302.01,351.964,295.991,352L295.991,352z M263.991,384
		c-4.418,0-8-3.582-8-8s3.582-8,8-8s8,3.582,8,8S268.41,384,263.991,384z M295.991,384c-4.418,0-8-3.582-8-8s3.582-8,8-8
		s8,3.582,8,8S300.41,384,295.991,384z"/>
	<path style="fill:#1E81CE;" d="M167.991,384h48v16h-48V384z"/>
</g>
<g>
</g>
<g>
</g>
<g>
</g>
<g>
</g>
<g>
</g>
<g>
</g>
<g>
</g>
<g>
</g>
<g>
</g>
<g>
</g>
<g>
</g>
<g>
</g>
<g>
</g>
<g>
</g>
<g>
</g>
</svg>
