<svg height="512pt" viewBox="-45 0 512 512" width="512pt" xmlns="http://www.w3.org/2000/svg"><g fill="#d6effb"><path d="m17.597656 99.898438c.144532-.183594.285156-.371094.433594-.554688-.148438.183594-.289062.371094-.433594.554688zm0 0"/><path d="m15.605469 102.726562c.195312-.304687.390625-.613281.59375-.910156-.207031.296875-.398438.605469-.59375.910156zm0 0"/><path d="m94.769531 15.296875c.355469-.21875.710938-.433594 1.070313-.640625-.359375.207031-.714844.421875-1.070313.640625zm0 0"/><path d="m96.175781 14.476562c.40625-.222656.8125-.445312 1.226563-.65625-.414063.210938-.820313.433594-1.226563.65625zm0 0"/><path d="m16.539062 101.328125c.179688-.253906.355469-.507813.539063-.757813-.183594.25-.359375.503907-.539063.757813zm0 0"/><path d="m90.582031 18.292969c.246094-.207031.5-.40625.753907-.605469-.253907.199219-.507813.398438-.753907.605469zm0 0"/><path d="m91.949219 17.210938c.285156-.210938.570312-.417969.855469-.621094-.285157.199218-.570313.40625-.855469.621094zm0 0"/><path d="m87.960938 20.699219c.160156-.164063.328124-.320313.492187-.480469-.164063.160156-.332031.316406-.492187.480469zm0 0"/><path d="m89.25 19.453125c.210938-.191406.425781-.378906.640625-.566406-.214844.1875-.429687.375-.640625.566406zm0 0"/><path d="m93.351562 16.210938c.316407-.214844.632813-.425782.957032-.632813-.324219.207031-.640625.417969-.957032.632813zm0 0"/><path d="m329.496094 335.839844c4.675781 0 9.253906.40625 13.71875 1.148437v-286.714843c0-22.242188-18.027344-40.273438-40.269532-40.273438h-189.457031c-5.648437 0-11.144531 1.339844-16.082031 3.820312v78.496094c0 8.839844-7.167969 16.007813-16.007812 16.007813h-68.699219c-1.761719 4.285156-2.695313 8.90625-2.695313 13.613281v310.824219c0 22.242187 18.027344 40.273437 40.269532 40.273437h216.214843c-12.5-14.539062-20.074219-33.4375-20.074219-54.117187 0-45.882813 37.199219-83.078125 83.082032-83.078125zm0 0"/><path d="m14 105.515625c.199219-.386719.40625-.773437.621094-1.152344-.214844.382813-.421875.765625-.621094 1.152344zm0 0"/><path d="m13.316406 106.917969c.195313-.421875.398438-.839844.609375-1.253907-.210937.414063-.414062.832032-.609375 1.253907zm0 0"/><path d="m14.761719 104.121094c.199219-.351563.402343-.695313.617187-1.039063-.214844.34375-.417968.6875-.617187 1.039063zm0 0"/><path d="m86.730469 22.007812-.007813.011719-67.671875 76.128907h-.003906l67.675781-76.128907zm0 0"/><path d="m12.703125 108.320312c.183594-.449218.378906-.894531.582031-1.335937-.203125.441406-.398437.886719-.582031 1.335937zm0 0"/></g><path d="m97.40625 92.316406v-78.496094s0 0-.003906 0c-.414063.210938-.820313.433594-1.226563.65625-.113281.0625-.226562.121094-.335937.183594-.359375.203125-.71875.417969-1.070313.636719-.15625.09375-.308593.1875-.460937.28125-.324219.207031-.640625.417969-.957032.632813-.183593.125-.367187.25-.546874.378906-.285157.199218-.570313.410156-.855469.621094-.207031.15625-.410157.316406-.613281.476562-.253907.199219-.507813.398438-.753907.605469-.234375.195312-.460937.394531-.691406.59375-.214844.1875-.429687.375-.640625.570312-.273438.246094-.535156.507813-.796875.761719-.164063.160156-.332031.316406-.492187.480469-.421876.425781-.828126.859375-1.230469 1.308593 0 .003907-.003907.007813-.007813.011719l-67.675781 76.128907c-.347656.390624-.6875.792968-1.015625 1.199218-.148438.179688-.289062.367188-.433594.554688-.171875.222656-.347656.441406-.515625.667968-.1875.25-.363281.503907-.542969.757813-.113281.164063-.230468.324219-.339843.488281-.203125.300782-.398438.605469-.59375.910156-.074219.117188-.152344.234376-.226563.355469-.214844.34375-.417968.6875-.617187 1.039063-.046875.082031-.09375.160156-.140625.242187-.214844.378907-.421875.765625-.617188 1.152344-.027344.050781-.054687.097656-.078125.148437-.210937.414063-.414062.832032-.609375 1.253907-.007812.023437-.019531.042969-.03125.066406-.203125.441406-.394531.886719-.582031 1.335937v.003907h68.699219c8.835937 0 16.003906-7.167969 16.003906-16.007813zm0 0" fill="#86a4b3"/><path d="m343.214844 336.988281c-4.464844-.742187-9.042969-1.148437-13.71875-1.148437-45.886719 0-83.082032 37.195312-83.082032 83.082031 0 20.675781 7.574219 39.574219 20.070313 54.113281 15.238281 17.726563 37.804687 28.964844 63.011719 28.964844 45.882812 0 83.078125-37.195312 83.078125-83.078125 0-41.210937-30.007813-75.390625-69.359375-81.933594zm0 0" fill="#00b7ec"/><path d="m400.253906 358.445312c-12.367187-14.457031-28.84375-24.746093-47.035156-29.53125v-278.644531c0-27.71875-22.554688-50.269531-50.28125-50.269531h-189.449219c-7.183593 0-14.183593 1.699219-20.480469 4.847656-.03125.015625-.0625.023438-.09375.039063s-.066406.039062-.101562.054687c-.386719.195313-.769531.40625-1.152344.613282-.292968.160156-.589844.316406-.878906.480468-.34375.195313-.679688.398438-1.015625.605469-.332031.199219-.660156.398437-.984375.605469-.296875.191406-.589844.386718-.886719.585937-.355469.238281-.710937.484375-1.058593.734375-.265626.1875-.527344.378906-.785157.570313-.371093.277343-.734375.558593-1.09375.847656-.238281.191406-.476562.378906-.710937.574219-.367188.304687-.730469.621094-1.089844.9375-.222656.195312-.441406.386718-.660156.585937-.363282.332031-.71875.679688-1.070313 1.023438-.203125.199219-.410156.394531-.609375.597656-.421875.429687-.832031.871094-1.238281 1.320313-.109375.121093-.222656.234374-.332031.355468l-30.074219 33.832032-37.597656 42.292968c-.453125.507813-.886719 1.023438-1.316407 1.550782-.128906.160156-.25.324218-.378906.484374-.277344.355469-.558594.707032-.824218 1.070313-.214844.285156-.417969.578125-.625.867187-.164063.238282-.335938.472657-.5.710938-.253907.375-.496094.753906-.738282 1.132812-.097656.15625-.199218.308594-.296875.464844-.28125.453125-.546875.90625-.8125 1.367188-.046875.082031-.09375.164062-.140625.246094-.296875.523437-.582031 1.054687-.859375 1.59375-.007812.007812-.011719.015624-.015625.027343-3.300781 6.421875-5.066406 13.578125-5.066406 20.917969v310.820312c0 27.726563 22.554688 50.28125 50.28125 50.28125h211.765625c17.53125 18.460938 41.851563 28.960938 67.453125 28.960938 51.324219 0 93.078125-41.753906 93.078125-93.078125 0-22.175781-7.929687-43.652344-22.324219-60.476563zm-312.847656-322.144531v56.015625c0 3.3125-2.695312 6.007813-6.007812 6.007813h-49.125l30.132812-33.902344zm-37.128906 426.738281c-16.695313 0-30.277344-13.582031-30.277344-30.277343v-310.820313c0-1.21875.109375-2.425781.28125-3.617187h61.117188c14.339843 0 26.007812-11.667969 26.007812-26.007813v-71.578125c1.976562-.480469 4.015625-.738281 6.082031-.738281h189.449219c16.699219 0 30.28125 13.578125 30.28125 30.269531v275.644531c-1.238281-.046874-2.480469-.074218-3.71875-.074218-51.324219 0-93.082031 41.757812-93.082031 93.082031 0 1.238281.035156 2.472656.085937 3.707031.011719.335938.027344.667969.046875 1 .050781 1.046875.121094 2.089844.207031 3.128906.019532.207032.03125.414063.050782.617188.109375 1.214844.246094 2.421875.40625 3.625.039062.308594.085937.617188.128906.925781.136719.972657.289062 1.9375.457031 2.90625.050781.289063.097657.582031.148438.875.21875 1.1875.457031 2.363281.71875 3.539063.058593.253906.121093.507812.179687.761718.226563.960938.464844 1.917969.71875 2.867188.085938.328125.171875.65625.261719.984375.324219 1.160156.660156 2.3125 1.027344 3.457031.042969.128906.089843.253906.128906.382813.335937 1.03125.695313 2.058593 1.066406 3.078125.121094.332031.246094.667968.371094 1 .367187.972656.75 1.9375 1.148437 2.898437.070313.171875.136719.347657.210938.519531.464844 1.097657.953125 2.183594 1.460938 3.265626.148437.3125.300781.625.453124.9375.414063.855468.839844 1.707031 1.277344 2.550781.140625.265625.273438.53125.414063.796875.054687.097656.101562.199218.152343.292968zm279.222656 28.960938c-21.332031 0-41.535156-9.285156-55.441406-25.480469-11.375-13.222656-17.640625-30.128906-17.640625-47.597656 0-40.296875 32.785156-73.082031 73.082031-73.082031 4.050781 0 8.109375.335937 12.082031 1.003906 35.34375 5.867188 60.996094 36.179688 60.996094 72.078125 0 40.292969-32.78125 73.078125-73.078125 73.078125zm0 0"/><path d="m100.835938 173.203125h158.539062c5.523438 0 10-4.476563 10-10s-4.476562-10-10-10h-158.539062c-5.523438 0-10 4.476563-10 10s4.476562 10 10 10zm0 0"/><path d="m267.6875 231.199219c-.359375-.539063-.777344-1.058594-1.238281-1.519531-.46875-.460938-.980469-.878907-1.519531-1.238282-.550782-.363281-1.128907-.671875-1.730469-.921875-.601563-.25-1.230469-.441406-1.871094-.570312-1.289063-.257813-2.617187-.257813-3.910156 0-.640625.128906-1.269531.320312-1.867188.570312-.601562.25-1.183593.558594-1.730469.921875-.542968.359375-1.0625.777344-1.519531 1.238282-.460937.460937-.882812.980468-1.242187 1.519531-.359375.550781-.667969 1.128906-.917969 1.730469-.25.601562-.441406 1.230468-.570313 1.871093-.132812.648438-.191406 1.300781-.191406 1.949219 0 .660156.058594 1.308594.191406 1.960938.128907.640624.320313 1.269531.570313 1.867187.25.601563.558594 1.183594.917969 1.730469.359375.542968.78125 1.050781 1.242187 1.519531 1.859375 1.863281 4.4375 2.933594 7.066407 2.933594.660156 0 1.3125-.070313 1.960937-.203125.640625-.128906 1.269531-.320313 1.871094-.570313.601562-.25 1.179687-.558593 1.730469-.917969.539062-.371093 1.050781-.78125 1.519531-1.242187.460937-.46875.871093-.976563 1.238281-1.519531.363281-.546875.671875-1.128906.921875-1.730469.25-.597656.441406-1.226563.570313-1.867187.128906-.652344.1875-1.300782.1875-1.960938 0-.648438-.058594-1.300781-.1875-1.949219-.128907-.640625-.320313-1.269531-.570313-1.871093-.25-.601563-.558594-1.179688-.921875-1.730469zm0 0"/><path d="m100.835938 246.753906h118.539062c5.523438 0 10-4.476562 10-10 0-5.523437-4.476562-10-10-10h-118.539062c-5.523438 0-10 4.476563-10 10 0 5.523438 4.476562 10 10 10zm0 0"/><path d="m100.835938 320.308594h158.539062c5.523438 0 10-4.480469 10-10 0-5.523438-4.476562-10-10-10h-158.539062c-5.523438 0-10 4.476562-10 10 0 5.519531 4.476562 10 10 10zm0 0"/><path d="m215.164062 373.859375h-114.328124c-5.523438 0-10 4.476563-10 10s4.476562 10 10 10h114.328124c5.523438 0 10-4.476563 10-10s-4.476562-10-10-10zm0 0"/><path d="m361.085938 377.003906c-18.101563 19.234375-31.945313 48.589844-38.71875 64.75l-30.917969-19.820312c-4.648438-2.980469-10.835938-1.625-13.816407 3.023437-2.980468 4.648438-1.625 10.832031 3.023438 13.8125l41.15625 26.386719c1.632812 1.042969 3.507812 1.578125 5.398438 1.578125 1.085937 0 2.175781-.175781 3.230468-.535156 2.882813-.984375 5.160156-3.230469 6.1875-6.101563.160156-.449218 16.328125-45.273437 39.023438-69.386718 3.785156-4.019532 3.589844-10.347657-.429688-14.136719-4.023437-3.78125-10.351562-3.589844-14.136718.429687zm0 0"/></svg>