<?xml version="1.0"?>
<svg xmlns="http://www.w3.org/2000/svg" id="Layer_1" data-name="Layer 1" viewBox="0 0 512 512" width="512" height="512"><title>Call Center</title><path d="M297.732,475.13H246.52v-16h51.21a60.263,60.263,0,0,0,60.17-60.172v-39.2h16v39.2A76.283,76.283,0,0,1,297.732,475.13Z" style="fill:#fedb41"/><path d="M245.49,88.56A125.137,125.137,0,1,1,381.96,260.41a126.487,126.487,0,0,1-21.1,1.77q-4.11,0-8.16-.26A125.183,125.183,0,0,1,245.49,88.56Z" style="fill:#00acea"/><path d="M365.9,362.2H333.47V332.93H352.7V261.92q4.05.255,8.16.26a126.487,126.487,0,0,0,21.1-1.77V362.2Z" style="fill:#f4b844"/><path d="M333.47,362.2v27.44a29.262,29.262,0,0,1-29.26,29.27H269.27V280.67h34.94a29.26,29.26,0,0,1,29.26,29.26V362.2Z" style="fill:#00efd1"/><path d="M248.52,467.13v32.92H194.49a25.555,25.555,0,0,1-25.56-25.56V459.15a25.555,25.555,0,0,1,25.56-25.56h54.03Z" style="fill:#00acea"/><path d="M245.49,88.56a123.908,123.908,0,0,0-8.1,28.16,148.878,148.878,0,0,0-33.4-3.78c-81.99,0-148.7,66.71-148.7,148.71v71.28H75.01V362.2H26.02V261.65c0-98.14,79.84-177.98,177.97-177.98A177.9,177.9,0,0,1,245.49,88.56Z" style="fill:#f4b844"/><path d="M138.71,280.67V419.41l-34.67-.27a29.265,29.265,0,0,1-29.03-29.27V309.93a29.26,29.26,0,0,1,29.26-29.26Z" style="fill:#00efd1"/><path d="M439.91,125.25a11.637,11.637,0,0,1-3,22.88H393.83l-33.94,39.02H335.7l21.45-39.02H322.86a78.048,78.048,0,0,1-30.77-6.32l-18.92-8.11V111.27H419.12a10.655,10.655,0,0,1,9.88,6.66,10.61,10.61,0,0,0,7.14,6.31Z" style="fill:#00efd1"/><polygon points="287.54 83.98 302.76 111.27 273.17 111.27 273.17 83.98 287.54 83.98" style="fill:#00ceb4"/></svg>
