<?xml version="1.0"?>
<svg xmlns="http://www.w3.org/2000/svg" id="Layer_1" data-name="Layer 1" viewBox="0 0 512 512" width="512" height="512"><title>Check</title><path d="M435.77,138.13V443.88a40,40,0,0,1-40,40H116.23a40,40,0,0,1-40-40V68.12a40,40,0,0,1,40-40H328.98v90.01a19.994,19.994,0,0,0,20,20Zm-46.89,66.01a17.635,17.635,0,0,0-13.09-17.04l-5.72-1.53a16.179,16.179,0,0,1-10.82-9.56,16.122,16.122,0,0,0-14.97-10.1H160.37L137.31,129.1H123.12v70.8l28.66,12.3a118.317,118.317,0,0,0,46.63,9.58h51.97L217.86,280.9h36.66l51.44-59.12h65.28a17.651,17.651,0,0,0,17.64-17.64ZM204,452V393.69H139.63V452Zm0-88.11V305.58H139.63v58.31Z" style="fill:#f4b844"/><path d="M328.98,28.12,435.77,138.13H348.98a19.994,19.994,0,0,1-20-20Z" style="fill:#00acea"/><path d="M375.79,187.1a17.639,17.639,0,0,1-4.55,34.68H305.96L254.52,280.9H217.86l32.52-59.12H198.41a118.317,118.317,0,0,1-46.63-9.58l-28.66-12.3V165.91H344.28a16.122,16.122,0,0,1,14.97,10.1,16.179,16.179,0,0,0,10.82,9.56Z" style="fill:#00efd1"/><rect x="139.63" y="393.69" width="64.37" height="58.31" style="fill:#00acea"/><rect x="139.63" y="305.58" width="64.37" height="58.31" style="fill:#00acea"/><polygon points="137.31 129.1 160.37 165.91 123.12 165.91 123.12 129.1 137.31 129.1" style="fill:#00ceb4"/><path d="M116.23,492H395.77A48.355,48.355,0,0,0,444,443.88V138.13a8.115,8.115,0,0,0-2.375-5.572L334.778,22.488A8.191,8.191,0,0,0,328.98,20H116.23A48.355,48.355,0,0,0,68,68.12V443.88A48.355,48.355,0,0,0,116.23,492ZM337,47.847,416.855,130H348.98A11.886,11.886,0,0,1,337,118.13ZM84,68.12A32.336,32.336,0,0,1,116.23,36H321v82.13A27.9,27.9,0,0,0,348.98,146H428V443.88A32.336,32.336,0,0,1,395.77,476H116.23A32.336,32.336,0,0,1,84,443.88Z" style="fill:#083863"/><path d="M212,306a8,8,0,0,0-8-8H140a8,8,0,0,0-8,8v58a8,8,0,0,0,8,8h64a8,8,0,0,0,8-8Zm-16,50H148V314h48Z" style="fill:#083863"/><path d="M156.146,342.018l8.25,6.57A8,8,0,0,0,175.4,347.6l13.12-15a8,8,0,1,0-12.042-10.534l-8.091,9.25-2.274-1.811a8,8,0,0,0-9.968,12.516Z" style="fill:#083863"/><path d="M362.37,310H236.94a8,8,0,0,0,0,16H362.37a8,8,0,0,0,0-16Z" style="fill:#083863"/><path d="M212,394a8,8,0,0,0-8-8H140a8,8,0,0,0-8,8v58a8,8,0,0,0,8,8h64a8,8,0,0,0,8-8Zm-16,50H148V402h48Z" style="fill:#083863"/><path d="M156.151,430.142l8.25,6.56a8,8,0,0,0,11-1l13.12-15a8,8,0,1,0-12.042-10.534l-8.1,9.254-2.275-1.809a8,8,0,0,0-9.958,12.524Z" style="fill:#083863"/><path d="M362.37,398H236.94a8,8,0,0,0,0,16H362.37a8,8,0,0,0,0-16Z" style="fill:#083863"/><path d="M119.905,207.251,148.6,219.663A125.894,125.894,0,0,0,198.41,230h38.439l-26,47.155A7.993,7.993,0,0,0,217.86,289h36.66a7.943,7.943,0,0,0,6.035-2.688L309.6,230H371.24a25.747,25.747,0,0,0,6.617-50.6l-5.736-1.549a8.149,8.149,0,0,1-3.3-1.786,8,8,0,0,1-2.148-3A23.987,23.987,0,0,0,344.28,158H164.8l-20.709-33.152A8.089,8.089,0,0,0,137.31,121H123.12a8.189,8.189,0,0,0-8.12,8.1v70.8A8.053,8.053,0,0,0,119.905,207.251ZM344.28,174a8.059,8.059,0,0,1,7.553,5.053A24.165,24.165,0,0,0,368,193.309l5.726,1.526a9.647,9.647,0,0,1,7.152,9.308,9.828,9.828,0,0,1-2.827,6.922A9.684,9.684,0,0,1,371.24,214H305.96a7.941,7.941,0,0,0-6.035,2.689L250.876,273H231.391l26-47.315a7.84,7.84,0,0,0-.124-7.841A7.921,7.921,0,0,0,250.38,214H198.41a110.112,110.112,0,0,1-43.535-9.041L131,194.627V174H344.28ZM131,137h1.881l13.037,21H131Z" style="fill:#083863"/><path d="M236.94,360h85.43a8,8,0,0,0,0-16H236.94a8,8,0,0,0,0,16Z" style="fill:#083863"/><path d="M322.37,432H236.94a8,8,0,0,0,0,16h85.43a8,8,0,0,0,0-16Z" style="fill:#083863"/></svg>
