<?xml version="1.0" encoding="iso-8859-1"?>
<!-- Generator: Adobe Illustrator 19.0.0, SVG Export Plug-In . SVG Version: 6.00 Build 0)  -->
<svg version="1.1" id="Capa_1" xmlns="http://www.w3.org/2000/svg" xmlns:xlink="http://www.w3.org/1999/xlink" x="0px" y="0px"
	 viewBox="0 0 512 512" style="enable-background:new 0 0 512 512;" xml:space="preserve">
<circle style="fill:#87D2F3;" cx="256" cy="256" r="192"/>
<path style="fill:#FFFFFF;" d="M362.667,384v64h-160l-53.333-32v-32c0,0,0-21.333,32-32c18.215-5.964,36.03-13.09,53.333-21.333
	v-14.4C209.103,307.259,192.002,283.104,192,256v-32c0-35.346,28.654-64,64-64s64,28.654,64,64v32
	c-0.002,27.104-17.103,51.259-42.667,60.267v14.4c17.304,8.243,35.118,15.369,53.333,21.333
	C362.667,362.667,362.667,384,362.667,384z"/>
<g>
	<path style="fill:#2170A6;" d="M458.667,256C458.543,144.121,367.879,53.457,256,53.333h-27.584l35.125-35.125L248.459,3.125
		l-53.333,53.333c-4.164,4.165-4.164,10.917,0,15.083l53.333,53.333l15.083-15.083l-35.125-35.125H256
		C356.101,74.778,437.222,155.899,437.333,256H458.667z"/>
	<path style="fill:#2170A6;" d="M263.541,387.125l-15.083,15.083l35.125,35.125H256C155.899,437.222,74.778,356.101,74.667,256
		H53.333C53.457,367.879,144.121,458.543,256,458.667h27.584l-35.125,35.125l15.083,15.083l53.333-53.333
		c4.164-4.165,4.164-10.917,0-15.083L263.541,387.125z"/>
	<path style="fill:#2170A6;" d="M334.037,341.877c-15.647-5.19-31.013-11.189-46.037-17.973v-0.501
		c26.018-12.373,42.615-38.592,42.667-67.403v-32c0-41.237-33.429-74.667-74.667-74.667S181.333,182.763,181.333,224v32
		c0.051,28.811,16.648,55.029,42.667,67.403v0.501c-15.024,6.785-30.391,12.784-46.037,17.973
		c-8.942,2.801-17.228,7.375-24.363,13.451l14.155,16c4.987-4.166,10.763-7.286,16.981-9.173
		c18.686-6.109,36.957-13.42,54.699-21.888c3.634-1.816,5.921-5.538,5.899-9.6v-14.389c0.002-4.519-2.844-8.549-7.104-10.059
		c-21.278-7.54-35.515-27.645-35.563-50.219v-32c0-29.455,23.878-53.333,53.333-53.333c29.455,0,53.333,23.878,53.333,53.333v32
		c-0.047,22.574-14.285,42.679-35.563,50.219c-4.26,1.509-7.106,5.539-7.104,10.059v14.389c-0.002,4.043,2.282,7.739,5.899,9.547
		c17.752,8.476,36.034,15.795,54.731,21.909C350.933,369.995,352,383.712,352,384v64h21.333v-64
		C373.333,382.816,372.885,354.827,334.037,341.877z"/>
	<path style="fill:#2170A6;" d="M53.333,192h21.333v-64c0.676-22.888-17.331-41.991-40.22-42.667c-0.815-0.024-1.631-0.024-2.447,0
		H0v21.333h32c11.076-0.706,20.628,7.701,21.333,18.777c0.054,0.851,0.054,1.705,0,2.556V192z"/>
	<path style="fill:#2170A6;" d="M480,405.333c-11.076,0.706-20.628-7.701-21.333-18.777c-0.054-0.851-0.054-1.705,0-2.556v-64
		h-21.333v64c-0.676,22.889,17.331,41.991,40.22,42.667c0.815,0.024,1.631,0.024,2.447,0h32v-21.333H480z"/>
	<path style="fill:#2170A6;" d="M53.333,213.333h21.333v21.333H53.333V213.333z"/>
	<path style="fill:#2170A6;" d="M96,213.333h21.333v21.333H96V213.333z"/>
	<path style="fill:#2170A6;" d="M138.667,213.333H160v21.333h-21.333V213.333z"/>
	<path style="fill:#2170A6;" d="M394.667,277.333H416v21.333h-21.333V277.333z"/>
	<path style="fill:#2170A6;" d="M352,277.333h21.333v21.333H352V277.333z"/>
	<path style="fill:#2170A6;" d="M437.333,277.333h21.333v21.333h-21.333V277.333z"/>
</g>
<g>
</g>
<g>
</g>
<g>
</g>
<g>
</g>
<g>
</g>
<g>
</g>
<g>
</g>
<g>
</g>
<g>
</g>
<g>
</g>
<g>
</g>
<g>
</g>
<g>
</g>
<g>
</g>
<g>
</g>
</svg>
